<?xml version="1.0" encoding="utf-8"?>
<!-- Generator: Adobe Illustrator 15.0.0, SVG Export Plug-In . SVG Version: 6.00 Build 0)  -->
<!DOCTYPE svg PUBLIC "-//W3C//DTD SVG 1.1//EN" "http://www.w3.org/Graphics/SVG/1.1/DTD/svg11.dtd">
<svg version="1.1" id="Layer_1" xmlns="http://www.w3.org/2000/svg" xmlns:xlink="http://www.w3.org/1999/xlink" x="0px" y="0px"
	 width="119.697px" height="71.212px" viewBox="0 0 119.697 71.212" enable-background="new 0 0 119.697 71.212"
	 xml:space="preserve">
<g>
	<path fill="#881826" d="M118.921,37.921C54.221-29.351,3.475,38.044,3.475,38.044l0.016,0.083
		c13.331-10.399,26.198-15.064,38.2-17.981c-0.623,0.772-1.211,1.568-1.725,2.396c-1.781,2.849-3.023,6.16-3.595,9.567
		c-0.572,3.42-0.474,6.952,0.28,10.225c0.756,3.274,2.22,6.492,4.229,9.31c2.007,2.819,4.574,5.248,7.423,7.029
		c2.851,1.779,6.158,3.02,9.573,3.593c3.399,0.569,6.92,0.473,10.185-0.277v0.003l0.031-0.009l0.035-0.005
		c3.258-0.761,6.469-2.223,9.271-4.219c2.818-2.014,5.253-4.579,7.03-7.424c1.783-2.852,3.023-6.16,3.596-9.573
		c0.57-3.415,0.472-6.948-0.281-10.223c-0.758-3.271-2.224-6.489-4.227-9.308c-0.052-0.067-0.108-0.126-0.155-0.192
		c21.828,6.206,35.568,17.157,35.568,17.157L118.921,37.921z"/>
	<g>
		<path fill="#FFFFFF" d="M82.918,42.07c-0.035-0.012-0.069-0.021-0.107-0.021c-0.467-0.009-0.76-0.414-1.197-0.568
			c-0.247-0.093-0.434,0.1-0.684,0.107c-0.129,0-0.239-0.062-0.362-0.089c-0.152-0.03-0.262,0.063-0.39,0.177
			c-0.01-0.022-0.017-0.044-0.021-0.069c-0.119,0.041-0.108,0.213-0.194,0.29c-0.055-0.244,0.159-0.453-0.095-0.561
			c-0.192-0.077-0.396-0.106-0.607-0.121c-0.152-0.011-0.383-0.116-0.531-0.017c-0.115,0.076-0.086,0.276-0.175,0.376
			c-0.139,0.151-0.046-0.238-0.052-0.296c-0.01-0.282-0.277-0.211-0.464-0.146c-0.119,0.041-0.236,0.099-0.363,0.121
			c-0.006,0.065,0,0.131-0.006,0.189c-0.014,0.224-0.141,0.083-0.151-0.052c-0.023-0.218,0.145-0.429,0.249-0.605
			c0.17-0.3,0.021-0.312-0.155-0.466c-0.159-0.134-0.117-0.41-0.183-0.598c-0.093-0.259-0.432-0.355-0.653-0.44
			c-0.214-0.083-0.422-0.193-0.659-0.208c-0.253-0.016-0.463,0.101-0.7,0.173c-0.196,0.059-0.423,0.101-0.609,0.021
			c-0.084-0.038-0.142-0.113-0.223-0.155c-0.119-0.061-0.191,0.023-0.304,0.052c-0.045-0.181,0.08-0.273-0.112-0.387
			c-0.122-0.073-0.259-0.148-0.397-0.197c-0.17-0.062-0.318-0.062-0.468,0.049c-0.039,0.024-0.369,0.189-0.248,0.029
			c0.077-0.106,0.077-0.037,0.04-0.17c-0.015-0.07-0.006-0.141,0-0.207c0.014-0.124-0.109-0.163-0.214-0.168
			c-0.136-0.007-0.309,0.073-0.434,0.002c-0.131-0.065-0.053-0.118,0.045-0.166c0.276-0.112-0.026-0.159-0.176-0.123
			c-0.133,0.034-0.269,0.079-0.387,0.146c-0.171,0.101-0.274,0.299-0.467,0.359c-0.293,0.097-0.561-0.2-0.851-0.057
			c-0.113,0.058-0.218,0.159-0.346,0.172c-0.18,0.025-0.239-0.19-0.384-0.254c-0.142-0.062-0.264-0.008-0.41,0.016
			c-0.132,0.016-0.179-0.116-0.239-0.201c-0.032-0.042-0.071-0.046-0.118-0.017c-0.104,0.064-0.047,0.104-0.036,0.202
			c0.023,0.195-0.104,0.271-0.271,0.312c-0.312,0.067,0.015,0.367,0.105,0.475c0.188,0.22,0.075,0.53-0.245,0.336
			c-0.142-0.085-0.177-0.202-0.134-0.362c0.046-0.175-0.114-0.342-0.056-0.496c0.036-0.108,0.173-0.187,0.14-0.317
			c-0.05-0.161-0.252-0.094-0.34-0.003c-0.104,0.103-0.101,0.268-0.221,0.361c-0.103,0.078-0.237,0.107-0.363,0.148
			c-0.101,0.037-0.226,0.094-0.233,0.219c-0.146,0.061-0.276,0.012-0.345,0.192c-0.115,0.31,0.044,0.617-0.245,0.865
			c-0.075,0.059-0.221,0.162-0.129,0.255c0.041,0.04-0.014,0.085-0.063,0.069c-0.08-0.021-0.162-0.095-0.219-0.146
			c-0.226-0.203-0.576-0.166-0.854-0.102c-0.331,0.07-0.536,0.431-0.887,0.407c-0.365-0.015-0.587-0.248-0.882-0.422
			c-0.109-0.062-0.305-0.139-0.305-0.29c0-0.052,0.029-0.114,0.011-0.165c-0.037-0.102-0.152-0.043-0.113-0.216
			c0.055-0.217,0-0.342-0.054-0.553c-0.043-0.168,0.049-0.302,0.063-0.46c0.031-0.348-0.499-0.414-0.751-0.442
			c-0.331-0.036-0.667,0.191-0.996,0.22c-0.148,0.006-0.881,0.381-0.683-0.081c0.109-0.262,0.109-0.508-0.011-0.771
			c-0.046-0.099,0-0.188,0.095-0.086c0.052,0.062,0.071-0.168,0.073-0.19c0.013-0.141-0.013-0.278-0.023-0.417
			c-0.027-0.182-0.008-0.314,0.068-0.471c0.048-0.095,0.072-0.356-0.093-0.344c-0.308,0.025-0.513-0.02-0.768,0.199
			c-0.123,0.102-0.275,0.149-0.415,0.237c-0.18,0.113-0.143,0.204-0.078,0.372c0.041,0.1-0.026,0.129-0.038,0.217
			c0.012,0.062,0.012,0.13,0.004,0.192c-0.02,0.063-0.082,0.084-0.12,0.137c-0.056,0.08,0.04,0.465-0.148,0.359
			c-0.219-0.133-0.285,0.001-0.483,0.105c-0.206,0.113-0.489,0.289-0.722,0.2c-0.152-0.053-0.277-0.027-0.43-0.058
			c-0.136-0.026-0.249-0.162-0.34-0.262c-0.186-0.217-0.4-0.373-0.589-0.578c-0.186-0.207-0.203-0.612-0.294-0.878
			c-0.104-0.306-0.136-0.565-0.039-0.882c0.101-0.322-0.024-0.434-0.142-0.718c-0.125-0.311,0.082-0.632,0.276-0.864
			c0.195-0.23,0.435-0.416,0.667-0.599c0.269-0.218,0.593-0.253,0.907-0.36c0.131-0.043,0.239-0.06,0.351,0.026
			c0.078,0.063,0.151,0.128,0.259,0.087c0.086-0.034,0.109-0.147,0.196-0.173c0.1-0.035,0.169,0.044,0.239,0.101
			c0.049,0.035,0.236,0.126,0.21-0.015c-0.014-0.094-0.129-0.125-0.192-0.177c-0.101-0.078-0.021-0.169-0.078-0.242
			c-0.075-0.102-0.223-0.021-0.312,0c0.071-0.182,0.259-0.091,0.404-0.121c0.156-0.038,0.31-0.13,0.472-0.175
			c0.284-0.09,0.703-0.209,0.981-0.052c0.137,0.068,0.204,0.111,0.362,0.03c0.145-0.08,0.276-0.199,0.454-0.164
			c0.141,0.026,0.285,0.122,0.409,0.195c0.135,0.089,0.135,0.286,0.174,0.426c0.104,0.378,0.282,0.546,0.587,0.769
			c0.168,0.123,0.635,0.592,0.683,0.083c0.039-0.378-0.162-0.823-0.372-1.119c-0.242-0.332-0.593-0.721-0.595-1.158
			c0-0.343,0.237-0.605,0.44-0.86c0.117-0.146,0.189-0.318,0.307-0.461c0.118-0.152,0.308-0.187,0.435-0.351
			c0.097-0.129,0.215-0.219,0.348-0.289c0.13-0.066,0.178-0.3,0.022-0.172c-0.192-0.249,0.256-0.242,0.253-0.449
			c0-0.131-0.082-0.266-0.157-0.363c-0.068-0.095-0.188-0.143-0.233-0.246c-0.067-0.175-0.044-0.405-0.1-0.592
			c-0.017-0.049-0.104-0.213-0.012-0.223c0.077-0.011,0.07,0.118,0.077,0.161c0.021,0.132,0.192,0.163,0.185,0.31
			c0,0.053-0.082,0.291,0.019,0.279c0.158-0.014,0.186-0.446,0.191-0.553c0.011-0.145-0.096-0.199-0.115-0.335
			c-0.016-0.099,0.124-0.087,0.171-0.046c0.101,0.083,0.142-0.046,0.179-0.114c0.059-0.106,0.129-0.264,0.052-0.377
			c-0.054-0.081-0.16-0.143-0.109-0.256c0.179-0.078,0.5,0.016,0.592-0.199c-0.06-0.002-0.405,0.077-0.372-0.029
			c0.029-0.078,0.156-0.119,0.227-0.148c0.091-0.042,0.194-0.068,0.287-0.104c0.165-0.062,0.282-0.195,0.457-0.237
			c0.054-0.008,0.377-0.111,0.184-0.18c-0.086-0.027-0.263-0.034-0.306-0.132c-0.104-0.229,0.059-0.655,0.268-0.767
			c0.156-0.086,0.136-0.167,0.172-0.313c0.044-0.172,0.182-0.074,0.3-0.101c0.131-0.032,0.26-0.116,0.308-0.234
			c0.028-0.054,0.031-0.116,0.01-0.173c0.081-0.06,0.188-0.038,0.283-0.056c0.128-0.028,0.299-0.179,0.383-0.265
			c0.054-0.06,0.117-0.222,0.205-0.235c0.18-0.028-0.042,0.323,0.205,0.192c0.244-0.131,0.23,0.089-0.005,0.131
			c-0.26,0.047-0.446,0.184-0.515,0.44c-0.05,0.208,0.041,0.413,0.293,0.311c0.269-0.116,0.207-0.478,0.489-0.578
			c0.159-0.058,0.277-0.149,0.426-0.229c0.124-0.069,0.281-0.093,0.401-0.174c0.131-0.083,0.012-0.218,0.105-0.31
			c0.073-0.066,0.169-0.097,0.253-0.146c0.234-0.145-0.22-0.117-0.253-0.186c-0.021-0.058,0.065-0.111,0.033-0.189
			c-0.057-0.127-0.214,0.033-0.247,0.085c-0.066,0.108,0,0.454-0.178,0.458c-0.104,0.004-0.17,0.052-0.249,0.098
			c-0.098,0.055-0.234,0.031-0.342,0.019c-0.111-0.008-0.204-0.033-0.301-0.081c-0.111-0.062-0.292-0.019-0.347-0.162
			c-0.012-0.036-0.016-0.077-0.016-0.111c-0.014-0.114-0.055-0.052-0.138-0.074c-0.061-0.014,0.021-0.093,0.035-0.109
			c0.074-0.101,0.021-0.264-0.112-0.162c-0.147,0.108-0.176,0.127-0.354,0.006c-0.134-0.092,0.282-0.113,0.32-0.139
			c0.072-0.067,0.13-0.146,0.167-0.228c0.031-0.076-0.021-0.173,0.027-0.223c-0.23-0.184-0.606-0.044-0.825,0.053
			c-0.261,0.124-0.538,0.357-0.742,0.562c-0.11,0.104-0.215,0.253-0.272,0.397c-0.047,0.104-0.066,0.256-0.166,0.337
			c-0.244,0.181,0.062-0.405,0.077-0.44c-0.018-0.026-0.324-0.189-0.119-0.177c0.128,0,0.222,0.04,0.28-0.104
			c0.069-0.172,0.138-0.364,0.299-0.48c0.1-0.072,0.247-0.08,0.312-0.195c0.076-0.142,0.13-0.239,0.266-0.336
			c0.322-0.237,0.72-0.279,1.101-0.389c0.313-0.089,0.717-0.047,1.008-0.176c0.147-0.064,0.129-0.185,0.184-0.308
			c0.045-0.107,0.153-0.208,0.244-0.284c0.109-0.09,0.261-0.082,0.373-0.152c0.096-0.062,0.169-0.159,0.218-0.254
			c0.041-0.076,0.086-0.21,0.007-0.293c-0.099-0.104-0.119-0.078-0.112-0.227c0.008-0.128-0.157-0.202-0.273-0.237
			c-0.056-0.012-0.124-0.018-0.181-0.008c-0.07,0.015-0.036,0.077-0.086,0.094c-0.11,0.041-0.066-0.251-0.244-0.24
			c-0.146,0.008-0.275,0.14-0.362,0.228c-0.076,0.067-0.197,0.242-0.316,0.253c-0.118-0.186,0.43-0.467,0.532-0.54
			c0.16-0.108-0.171-0.125-0.258-0.138c-0.073-0.007-0.132-0.043-0.206-0.062c-0.107-0.027-0.111,0.105-0.209,0.086
			c-0.037-0.288-0.245,0.036-0.333,0.019c0-0.053,0.057-0.158,0-0.206c-0.032-0.037-0.11-0.052-0.179-0.069
			c-1.914-0.156-3.87-0.244-5.858-0.258c-0.04,0.052-0.085,0.101-0.101,0.171c-0.03,0.128,0.11,0.188,0.201,0.221
			c0.245,0.091,0.432,0.142,0.532,0.405c0.113,0.285,0.056,0.547-0.139,0.801c-0.077,0.106-0.177,0.205-0.285,0.281
			c-0.096,0.063-0.256,0.12-0.318,0.229c-0.054,0.089,0.102,0.227,0.162,0.271c0.029,0.021,0.067,0.036,0.091,0.064
			c0.06,0.058-0.047,0.063-0.002,0.162c0.062,0.126,0.093,0.271,0.156,0.394c0.054,0.11,0.167,0.148,0.079,0.289
			c-0.079,0.142-0.044,0.153,0.029,0.271c0.097,0.163-0.131,0.049-0.165,0.022c-0.113-0.085-0.103,0.014-0.132,0.093
			c-0.036,0.094-0.125,0.082-0.223,0.078c-0.115-0.006-0.171-0.148-0.231-0.23c-0.09-0.102-0.162-0.067-0.271-0.11
			c-0.035-0.021-0.023-0.056,0-0.08c-0.029-0.053-0.089-0.071-0.142-0.089c-0.132-0.041-0.186-0.189-0.186-0.326
			c0-0.107-0.013-0.232-0.05-0.329c-0.034-0.078-0.059-0.161-0.041-0.245c0.007-0.06,0.034-0.135-0.01-0.181
			c-0.092-0.086-0.246-0.009-0.352,0.015c-0.168,0.037-0.36,0.085-0.523,0.097c-0.132,0.01-0.227-0.092-0.346-0.125
			c-0.154-0.045-0.314-0.036-0.459-0.073c-0.121-0.033-0.203-0.118-0.308-0.167c-0.14-0.067-0.296-0.081-0.44-0.126
			c-0.122-0.033-0.248-0.074-0.387-0.021c-0.154,0.054-0.283,0.193-0.436,0.244c-0.019-0.132,0.011-0.225-0.032-0.344
			c-0.031-0.082-0.037-0.178-0.044-0.268c-0.012-0.078-0.025-0.166-0.091-0.202c-0.089-0.048-0.189,0.051-0.281,0.086
			c-0.236,0.085-0.156-0.362-0.154-0.516c-0.046-0.081,0.12-0.366,0.168-0.454c0.03-0.067,0.063-0.137,0.104-0.2
			c0.002-0.004,0.012-0.008,0.012-0.012c-3.458,0.175-7.02,0.58-10.67,1.254c-0.041,0.053-0.086,0.112-0.12,0.155
			c-0.187,0.241-0.085,0.077-0.149,0.144c-0.071,0.081-0.235,0.291-0.158,0.173c0.037-0.068-0.068,0.061-0.153,0.173
			c-0.05,0.066-0.077,0.114-0.121,0.168c-0.039,0.052-0.036,0.04-0.083,0.106c-0.087,0.115-0.171,0.23-0.266,0.366
			c-0.05,0.072-0.237,0.36-0.187,0.289c0.039-0.054-0.001,0.012-0.018,0.041c-0.039,0.062-0.023,0.048-0.019,0.048
			c0.009-0.005,0.032-0.026-0.004,0.031c-0.023,0.042-0.098,0.16-0.092,0.141c0,0,0.057-0.108,0.06-0.116
			c0.012-0.024,0.016-0.042-0.027,0.021c-0.088,0.126-0.189,0.32-0.232,0.389c-0.024,0.041-0.068,0.113-0.077,0.132
			c-0.016,0.037,0.06-0.074,0.071-0.074c0.025-0.014,0.165-0.249,0.249-0.357c0.082-0.109-0.145,0.229-0.211,0.334
			c-0.013,0.027-0.063,0.112-0.068,0.123c-0.048,0.08-0.103,0.166-0.151,0.253c-0.033,0.054-0.061,0.111-0.099,0.169
			c-0.049,0.092-0.073,0.116-0.105,0.178c-0.053,0.085,0.046-0.044,0.061-0.064c0.047-0.07,0.103-0.137,0.072-0.062
			c-0.027,0.065,0.072-0.064,0.019,0.039c-0.022,0.044-0.159,0.308-0.053,0.142c0.022-0.04,0.219-0.366,0.106-0.159
			c-0.08,0.141,0.081-0.041,0.098-0.046c-0.074,0.136-0.108,0.138-0.169,0.25c-0.069,0.13-0.069,0.114-0.138,0.236
			c-0.091,0.168-0.108,0.182-0.181,0.288c-0.057,0.081-0.186,0.303-0.218,0.337c-0.044,0.05-0.106,0.149-0.157,0.202
			c-0.049,0.067-0.124,0.229-0.175,0.312c-0.043,0.061,0.006-0.059-0.03-0.01c-0.054,0.069-0.086,0.108-0.173,0.273
			c-0.104,0.188-0.137,0.2-0.195,0.292c-0.059,0.091-0.17,0.328-0.11,0.232c0.024-0.027,0.051-0.08,0.066-0.095
			c0.022-0.022,0.094-0.175,0.115-0.2c0.02-0.016,0.049-0.038,0.107-0.134c0.021-0.052,0.048-0.113,0.075-0.159
			c0.038-0.064,0.021-0.011-0.017,0.063c0,0,0.187-0.237,0.132-0.13c0.011,0.024,0.099-0.149,0.146-0.208
			c0.058-0.079,0.058-0.079,0.133-0.214c0.099-0.184,0.213-0.267,0.271-0.331c0.06-0.071,0.103-0.181,0.171-0.284
			c0.077-0.126,0.145-0.185,0.203-0.256c0.04-0.046,0.091-0.068,0.146-0.148c0.042-0.072,0.07-0.145,0.116-0.197
			c0.031-0.04,0.063-0.064,0.107-0.128c0.137-0.195,0.025-0.168,0.186-0.379c0.072-0.092,0.099-0.087,0.186-0.192
			c0.02-0.033,0.095-0.118,0.115-0.161c0.019-0.039,0.044-0.089,0.063-0.106c0.047-0.029,0.212-0.25,0.287-0.336
			c0.059-0.067,0.126-0.146,0.176-0.193c0.044-0.052,0.058-0.038,0.097-0.068c0.029-0.023,0.076-0.079,0.1-0.09
			c0.029-0.013-0.024,0.06-0.052,0.086c-0.072,0.069-0.064,0.122-0.115,0.194c-0.03,0.035-0.021-0.008-0.03-0.016
			c-0.014-0.007-0.042,0.015-0.07,0.039c-0.042,0.025-0.116,0.071-0.195,0.216c-0.112,0.192-0.133,0.195-0.243,0.355
			c-0.085,0.121-0.034,0.101-0.039,0.136c-0.047,0.061-0.061,0.044-0.109,0.107c-0.095,0.128-0.049,0.128-0.023,0.113
			c0.085-0.058,0.22-0.241,0.333-0.35c0.091-0.086,0.127-0.074,0.229-0.177c0.146-0.158,0.129-0.228,0.203-0.366
			c0.034-0.059,0.107-0.165,0.127-0.165c0.015,0.003-0.099,0.201-0.021,0.105c0.13-0.166,0.103-0.056,0.079,0.028
			c-0.013,0.053,0.018,0.049,0.005,0.104c-0.014,0.082,0.016,0.042,0.069,0.008c0.09-0.06-0.06,0.155-0.03,0.19
			c0.03,0.026,0.102-0.021,0.152-0.029c0.091-0.014,0.132,0.035,0.206,0.062c0.033,0.017,0.08,0.007,0.147-0.036
			c0.023-0.022,0.085-0.065,0.079-0.031c-0.012,0.074-0.095,0.113-0.117,0.166c-0.032,0.061,0.028,0.061,0.028,0.084
			c0.027,0.104,0.015,0.282,0.027,0.407c0.018,0.127,0.033,0.136,0.171-0.105c0.135-0.232,0.033,0.123,0.073,0.139
			c0.056,0.021,0.136-0.227,0.168-0.298c0.036-0.009,0.012,0.111,0.008,0.163c-0.008,0.076,0.013,0.13,0.028,0.186
			c0.015,0.055,0.024,0.123-0.012,0.235c-0.031,0.107-0.07,0.206-0.057,0.28c0.014,0.112,0.112,0.109,0.033,0.329
			c-0.027,0.096-0.095,0.228-0.068,0.277c0.022,0.054,0.081-0.01,0.062,0.114c-0.016,0.117-0.071,0.253-0.074,0.365
			c0,0.108,0.025,0.184,0.019,0.289c-0.001,0.089-0.037,0.203-0.016,0.272c0.016,0.056,0.037,0.104,0.05,0.166
			c0.014,0.07,0.093-0.108,0.122-0.148c0.083-0.109,0.006,0.074-0.013,0.115c-0.094,0.198-0.035,0.483,0.096,0.391
			c-0.008,0.058-0.045,0.099-0.057,0.151c-0.013,0.056-0.007,0.097-0.007,0.142c-0.002,0.145,0.019,0.223,0.087,0.278
			c0.159,0.134,0.344,0.21,0.497,0.38c0.107,0.124,0.204,0.276,0.261,0.474c0.05,0.182-0.037,0.36-0.112,0.16
			c-0.029-0.088-0.059-0.18-0.1-0.253c-0.06-0.111-0.186-0.048-0.205-0.22c-0.032-0.279-0.254-0.229-0.387-0.342
			c-0.058-0.052-0.134-0.098-0.221-0.056c-0.127,0.056-0.076,0.154-0.047,0.199c0.038,0.07,0.025,0.186,0.102,0.206
			c0.041,0.011,0.202,0.018,0.181,0.13c-0.017,0.034-0.033,0.043-0.055,0.034c-0.042,0.172,0.193,0.019,0.156,0.199
			c-0.028,0.135,0.173,0.027,0.216,0.044c-0.207,0.299,0.158,0.869,0.049,1.014c-0.12,0.162-0.115,0.292-0.112,0.477
			c0.006,0.3-0.083,0.604-0.144,0.923c0.003-0.014,0.008-0.026,0.017-0.042c-0.023,0.177-0.075,0.294-0.127,0.463
			c-0.057,0.183-0.026,0.342,0.009,0.49c0.03,0.146,0.056,0.313,0.01,0.491c-0.036,0.134-0.174,0.308-0.08,0.416
			c0.078,0.094,0.113,0.153,0.108,0.335c-0.008,0.16-0.016,0.331,0.099,0.373c0.109,0.043,0.128,0.091,0.175,0.24
			c0.05,0.146,0.136-0.096,0.211-0.028c-0.038,0.118-0.054,0.112-0.023,0.221c0.03,0.091-0.102,0.006-0.122,0.033
			c-0.037,0.062,0.07,0.191,0.089,0.222c0.108,0.166,0.173,0.057,0.129,0.353c-0.035,0.239,0.318,0.36,0.369,0.564
			c0.023,0.102-0.003,0.15,0.088,0.17c0.135,0.033,0.272,0.066,0.405,0.114c0.232,0.089,0.436,0.246,0.599,0.492
			c0.091,0.14,0.117,0.335,0.205,0.485c0.111,0.188,0.207,0.378,0.3,0.588c0.118,0.256,0.28,0.326,0.464,0.497
			c0.048,0.043,0.38,0.474,0.266,0.5c-0.093,0.027-0.189-0.028-0.266,0.068c-0.067,0.088,0.205,0.132,0.237,0.146
			c0.125,0.04,0.185,0.193,0.32,0.118c0.071-0.041,0.062,0.051,0.105,0.085c0.076,0.061,0.163,0.073,0.247,0.102
			c0.277,0.091,0.053,0.507,0.288,0.645c0.247,0.145,0.46,0.19,0.649,0.465c0.069,0.1,0.157,0.236,0.277,0.146
			c0.095-0.081,0.089-0.238-0.017-0.305c-0.083-0.057-0.133-0.201-0.219-0.236c-0.12-0.051-0.206,0.048-0.283-0.115
			c-0.084-0.185-0.111-0.306-0.251-0.437c-0.121-0.11-0.109-0.3-0.217-0.416c-0.108-0.112-0.227-0.194-0.324-0.321
			c-0.096-0.135-0.171-0.323-0.277-0.443c-0.047-0.051-0.111-0.06-0.158-0.093c-0.073-0.045-0.065-0.119-0.118-0.183
			c-0.082-0.108-0.21-0.135-0.308-0.217c-0.097-0.093-0.055-0.267-0.083-0.4c-0.014-0.081-0.162-0.335-0.028-0.382
			c0.18-0.063,0.344,0.082,0.494,0.115c0.126,0.028,0.098,0.222,0.154,0.332c0.099,0.19,0.221,0.361,0.338,0.534
			c0.122,0.189,0.357,0.636,0.588,0.459c0.054,0.035,0.044,0.118,0.06,0.177c0.031,0.085,0.104,0.116,0.165,0.144
			c0.08,0.035,0.311,0.141,0.355,0.228c0.051,0.114-0.068,0.233,0.037,0.336c0.08,0.076,0.196,0.076,0.29,0.102
			c0.117,0.036,0.16,0.118,0.226,0.229c0.072,0.119,0.244,0.142,0.347,0.218c0.135,0.095,0.251,0.212,0.39,0.299
			c0.149,0.083,0.27,0.175,0.299,0.371c0.021,0.165,0.158,0.206,0.227,0.345c0.027,0.056,0.02,0.13,0.007,0.189
			c-0.026,0.118,0.079,0.105,0.029,0.204c-0.256,0.527,1.119,0.639,1.317,0.694c0.151,0.044,0.295,0.119,0.445,0.171
			c0.166,0.06,0.337,0.065,0.505,0.105c0.374,0.093,0.733,0.227,1.116,0.293c0.375,0.064,0.612-0.012,0.903-0.242
			c0.322-0.252,0.613-0.158,0.953,0.055c0.637,0.415,1.516,0.481,2.243,0.386c0.301-0.038,0.619,0.301,0.877,0.438
			c0.121,0.064,0.333,0.15,0.402,0.289c0.068,0.133-0.033,0.279,0.095,0.412c0.126,0.126,0.184,0.086,0.261-0.015
			c0.086-0.106,0.286-0.012,0.376,0.036c0.115,0.055,0.31,0.092,0.401,0.176c0.05,0.045,0.032,0.109,0.078,0.157
			c0.069,0.08,0.216-0.006,0.304,0c0.171,0.011,0.349,0,0.51,0.062c0.146,0.059,0.245,0.219,0.413,0.23
			c0.102,0.001,0.253-0.041,0.261-0.159c0.005-0.153-0.248-0.182-0.182-0.331c0.031-0.071,0.116-0.065,0.168-0.109
			c0.048-0.04,0.058-0.107,0.103-0.152c0.13-0.117,0.295-0.067,0.452-0.056c0.041,0.004,0.292,0.1,0.161,0.134
			c-0.198,0.056,0.028,0.256,0.094,0.304c0.325,0.247,0.401,0.509,0.476,0.881c0.062,0.349,0.295,0.541,0.112,0.902
			c-0.079,0.163-0.203,0.226-0.309,0.36c-0.11,0.134-0.03,0.315-0.168,0.447c-0.119,0.117-0.207,0.188-0.223,0.356
			c-0.016,0.189-0.105,0.345-0.133,0.528c-0.029,0.216,0.022,0.566,0.267,0.656c0.146,0.046,0.229-0.089,0.255,0.137
			c0.016,0.156-0.039,0.238-0.139,0.345c-0.112,0.109-0.162,0.253-0.166,0.402c-0.005,0.144,0.128,0.248,0.131,0.387
			c0,0.107-0.056,0.173,0.143,0.161c0.18-0.006,0.338,0.079,0.476,0.195c0.249,0.212,0.5,0.45,0.729,0.683
			c0.296,0.302,0.496,0.634,0.835,0.896c0.163,0.132,0.587,0.344,0.474,0.596c-0.118,0.261,0.382,0.35,0.536,0.431
			c0.126,0.061,0.225,0.16,0.35,0.229c0.133,0.073,0.29,0.089,0.442,0.106c0.337,0.04,0.629,0.156,0.892,0.358
			c0.257,0.201,0.307,0.413,0.362,0.725c0.057,0.274,0.22,0.586,0.12,0.869c-0.043,0.123-0.088,0.165,0.016,0.263
			c0.049,0.049-0.035,0.249-0.035,0.325c0.022,0.345,0.135,0.659,0.103,1.001c-0.013,0.15-0.051,0.297-0.069,0.446
			c-0.019,0.111,0.057,0.135,0.092,0.227c0.038,0.094-0.045,0.153-0.053,0.247c-0.021,0.124,0.02,0.261,0.059,0.375
			c0.032,0.103,0.086,0.201,0.098,0.311c0.008,0.126-0.028,0.247-0.05,0.374c-0.054,0.279-0.077,0.557-0.134,0.826
			c-0.022,0.115-0.074,0.172-0.124,0.268c-0.042,0.08,0.025,0.17,0.058,0.238c0.036,0.087,0.078,0.166,0.124,0.249
			c0.068,0.112-0.014,0.179-0.024,0.296c-0.006,0.079-0.008,0.171-0.006,0.254c0,0.06,0.091,0.158,0.047,0.202
			c-0.074,0.088-0.039,0.211,0.006,0.307c0.062,0.124,0.136,0.004,0.123-0.087c-0.012-0.069-0.038-0.142-0.016-0.212
			c0.008-0.032,0.079-0.159,0.134-0.131c0.059,0.035,0.027,0.201,0.019,0.256c-0.006,0.104,0.009,0.207,0.006,0.305
			c0,0.1-0.018,0.193-0.021,0.287c0,0.062,0.086,0.242,0.012,0.279c-0.056,0.029-0.116-0.019-0.174,0.003
			c-0.044,0.016-0.112,0.119-0.129,0.16c-0.006,0.03-0.026,0.065,0.021,0.072c0.031,0.008,0.041-0.031,0.059-0.042
			c0.049-0.03,0.126-0.034,0.167,0.015c0.068,0.104-0.077,0.234-0.108,0.315c-0.037,0.102,0.064,0.246,0.089,0.344
			c0.023,0.102,0.054,0.222,0.161,0.261c0.103,0.035,0.1,0.144,0.151,0.223c0.025,0.042,0.072,0.059,0.106,0.098
			c0.033,0.047,0.062,0.069,0.119,0.076c0.114,0.024,0.192,0.082,0.287,0.113c0.034,0.013,0.171,0.085,0.209,0.028
			c0.083-0.109,0.242-0.066,0.324-0.185c0.034-0.046-0.047-0.02-0.068-0.02c-0.03-0.008-0.059-0.041-0.087-0.065
			c-0.035-0.031-0.064-0.073-0.104-0.103c-0.015-0.012-0.088-0.004-0.067-0.045c0.014-0.031,0.041-0.041,0-0.058
			c-0.021-0.018-0.057-0.006-0.081,0c-0.021,0.001-0.06,0.008-0.063-0.021c-0.013-0.06,0.124-0.035,0.157-0.044
			c0.009-0.121-0.22-0.325,0.028-0.438c0.102-0.044,0.101-0.11,0.13-0.211c0.031-0.122,0.11-0.186,0.208-0.257
			c0.029-0.024,0.067-0.055,0.061-0.091c-0.009-0.065,0.03-0.07,0.042-0.13c0.016-0.086-0.148-0.062-0.202-0.111
			c-0.077-0.072-0.113-0.175-0.004-0.281c0.077-0.074,0.177-0.194,0.277-0.19c0.009-0.119,0.061-0.323,0.156-0.435
			c0.021-0.023,0.084-0.081,0.072-0.115c-0.011-0.022-0.044-0.032-0.067-0.037c-0.003-0.036,0.023-0.093,0.063-0.109
			c0.062-0.024,0.073,0.061,0.131,0.049c0.062-0.017,0.104-0.1,0.081-0.15c-0.049-0.124-0.335,0.145-0.288-0.083
			c0.013-0.075-0.021-0.104-0.031-0.171c-0.014-0.084,0.119-0.104,0.16-0.094c0.124,0.014,0.278,0.062,0.4-0.088
			c0.075-0.083,0.057-0.18,0.07-0.271c0.015-0.104,0.038-0.148,0.012-0.244c0.119-0.179,0.355-0.137,0.511-0.194
			c0.104-0.038,0.202-0.099,0.303-0.168c0.093-0.062,0.195-0.104,0.286-0.166c0.084-0.059,0.366-0.535,0.27-0.589
			c-0.158-0.074,0.083-0.257-0.028-0.329c-0.047-0.021-0.406-0.102-0.275-0.228c0.104-0.098,0.378,0.017,0.455,0.032
			c0.094,0.019,0.21-0.034,0.305-0.031c0.096,0,0.214-0.079,0.315-0.158c0.189-0.147,0.35-0.418,0.476-0.631
			c0.088-0.136,0.142-0.261,0.187-0.405c0.026-0.111,0.138-0.181,0.198-0.281c0.047-0.071,0.157-0.288,0.235-0.249
			c-0.046,0.117-0.121,0.23-0.2,0.322c-0.024,0.033-0.111,0.171-0.019,0.124c0.131-0.068,0.254-0.357,0.325-0.488
			c0.143-0.262,0.371-0.475,0.492-0.745c0.115-0.255,0.113-0.524,0.165-0.777c0.021-0.103,0.041-0.227,0.103-0.321
			c0.068-0.113,0.234-0.197,0.324-0.299c0.115-0.11,0.223-0.227,0.347-0.317c0.119-0.086,0.229-0.118,0.336-0.242
			c0.216-0.239,0.435-0.31,0.67-0.36c0.103-0.023,0.24-0.025,0.336-0.147c0.074-0.095,0.169-0.237,0.238-0.339
			c0.077-0.12,0.074-0.248,0.158-0.375c0.089-0.138,0.202-0.252,0.275-0.399c0.163-0.326,0.176-0.659,0.337-0.985
			c0.163-0.339,0.144-0.646,0.187-0.985c0.02-0.18,0.027-0.346,0.077-0.532c0.021-0.093,0.049-0.182,0.082-0.273
			c0.049,0.006,0.095-0.019,0.134-0.06c0.159-0.158,0.251-0.434,0.34-0.641c0.128-0.307,0.337-0.534,0.521-0.798
			c0.224-0.309,0.318-0.638,0.33-1.016C83.145,42.58,83.15,42.163,82.918,42.07z"/>
		<path fill="#FFFFFF" d="M44.576,21.367c0.003,0,0.006-0.008,0.007-0.013C44.595,21.339,44.595,21.336,44.576,21.367z"/>
	</g>
</g>
</svg>
