<?xml version="1.0" encoding="utf-8"?>
<!-- Generated by IcoMoon.io -->
<!DOCTYPE svg PUBLIC "-//W3C//DTD SVG 1.1//EN" "http://www.w3.org/Graphics/SVG/1.1/DTD/svg11.dtd">
<svg version="1.1" xmlns="http://www.w3.org/2000/svg" xmlns:xlink="http://www.w3.org/1999/xlink" width="32" height="32" viewBox="0 0 32 32">
<path fill="#444444" d="M16 1.6c-8 0-14.4 6.4-14.4 14.4s6.4 14.4 14.4 14.4 14.4-6.4 14.4-14.4-6.4-14.4-14.4-14.4zM17.92 23.36l-0.16 1.12c-3.040 1.92-7.2 1.28-5.44-3.2 0.64-1.6 3.040-4.8 2.24-6.56-0.16-0.8-0.96-0.8-1.92-0.48l0.16-0.96c1.6-0.96 3.52-1.6 5.12-0.8 2.56 1.6-1.12 7.36-1.6 8.48-1.12 2.4 0 2.88 1.6 2.4zM17.92 10.72c-1.12 0-2.080-0.96-2.080-2.080s0.96-2.080 2.080-2.080c1.12 0 2.080 0.96 2.080 2.080s-0.96 2.080-2.080 2.080z"></path>
</svg>
