<?xml version="1.0" encoding="utf-8"?>
<!-- Generated by IcoMoon.io -->
<!DOCTYPE svg PUBLIC "-//W3C//DTD SVG 1.1//EN" "http://www.w3.org/Graphics/SVG/1.1/DTD/svg11.dtd">
<svg version="1.1" xmlns="http://www.w3.org/2000/svg" xmlns:xlink="http://www.w3.org/1999/xlink" width="32" height="32" viewBox="0 0 32 32">
<path fill="#444444" d="M23.68 18.88v0.32l2.72 2.72v1.6h-20.16v-1.76l2.72-2.72v-6.56c0-2.56 1.92-4.96 4.48-5.44l1.6-0.32v-1.6c0-0.8 0.64-1.28 1.28-1.28h0.16c0.8 0 1.28 0.64 1.28 1.28v1.6l1.6 0.32c2.56 0.48 4.32 2.88 4.48 5.44h2.080c0-3.68-2.72-6.72-6.080-7.52-0.16-1.76-1.6-3.2-3.36-3.2s-3.52 1.28-3.68 3.040c-3.52 0.8-6.080 4-6.080 7.68v5.76l-2.72 2.72v3.68c0 0.48 0.48 0.96 0.96 0.96h6.4c0 2.56 2.080 4.8 4.8 4.8s4.8-2.080 4.8-4.8h6.56c0.48 0 0.96-0.48 0.96-0.96v-3.68l-2.24-2.080h-2.56zM16.16 28.32c-1.44 0-2.56-1.12-2.56-2.56h5.28c0 1.28-1.12 2.56-2.72 2.56z"></path>
<path fill="#444444" d="M25.76 13.92h-6.88v-3.68l-5.28 5.28 2.56 2.72 0.64 0.64 2.080 1.92v-3.52h10.56v-3.36z"></path>
</svg>
