<?xml version="1.0" encoding="utf-8"?>
<!-- Generated by IcoMoon.io -->
<!DOCTYPE svg PUBLIC "-//W3C//DTD SVG 1.1//EN" "http://www.w3.org/Graphics/SVG/1.1/DTD/svg11.dtd">
<svg version="1.1" xmlns="http://www.w3.org/2000/svg" xmlns:xlink="http://www.w3.org/1999/xlink" width="32" height="32" viewBox="0 0 32 32">
<path fill="#444444" d="M22.88 17.44v1.44l0.64 0.64 2.24 2.080v1.76h-20.64v-1.76l2.080-2.24 0.64-0.64v-6.72c0-2.72 1.92-4.96 4.48-5.6l1.6-0.32v-1.6c0-0.64 0.64-1.28 1.44-1.28h0.16c0.8 0 1.28 0.64 1.28 1.28v1.6l1.6 0.32c0.48 0.16 0.96 0.32 1.44 0.48l0.96-0.16 0.64-1.44c-0.8-0.48-1.6-0.8-2.56-1.12-0.16-1.76-1.6-3.36-3.52-3.36s-3.36 1.76-3.52 3.52c-3.52 0.8-6.080 4-6.080 7.68v5.76l-2.72 2.72v3.84c0 0.48 0.48 0.96 0.96 0.96h6.56c0 2.72 2.24 4.8 4.8 4.8s4.8-2.24 4.8-4.8h6.72c0.48 0 0.96-0.48 0.96-0.96v-3.84l-2.88-2.72v-0.48l-0.96-0.32-1.12 0.48zM15.36 28.16c-1.44 0-2.72-1.12-2.72-2.72h5.28c0.16 1.44-1.12 2.72-2.56 2.72z"></path>
<path fill="#444444" d="M24 3.68l-2.24 4.64-5.12 0.8 3.68 3.68-0.8 5.12 4.48-2.56 4.64 2.4-0.96-4.96 3.68-3.68-5.12-0.8-2.24-4.64zM26.4 11.68l-0.48 0.48 0.16 0.64 0.32 1.92-1.76-0.96-0.64-0.32-0.64 0.32-1.76 0.96 0.32-1.92 0.16-0.64-0.48-0.48-1.44-1.28 1.92-0.32 0.64-0.16 0.32-0.64 0.96-1.76 0.8 1.76 0.32 0.64 0.64 0.16 1.92 0.32-1.28 1.28z"></path>
</svg>
