<?xml version="1.0" encoding="utf-8"?>
<!-- Generated by IcoMoon.io -->
<!DOCTYPE svg PUBLIC "-//W3C//DTD SVG 1.1//EN" "http://www.w3.org/Graphics/SVG/1.1/DTD/svg11.dtd">
<svg version="1.1" xmlns="http://www.w3.org/2000/svg" xmlns:xlink="http://www.w3.org/1999/xlink" width="32" height="32" viewBox="0 0 32 32">
<path fill="rgb(0, 0, 0)" d="M24.16 8h6.88v-2.72h-8.96c0.8 0.8 1.44 1.6 2.080 2.72z"></path>
<path fill="rgb(0, 0, 0)" d="M25.28 12.8h5.76v-2.72h-6.080c0.16 0.8 0.32 1.6 0.32 2.4v0.32z"></path>
<path fill="rgb(0, 0, 0)" d="M25.28 14.88h5.76v2.72h-5.76v-2.72z"></path>
<path fill="rgb(0, 0, 0)" d="M20.16 5.76c-0.8-0.64-1.76-0.96-2.88-1.28 0-0.8-0.32-1.6-0.8-2.080-0.16-0.16-0.32-0.32-0.48-0.48s-0.32-0.16-0.48-0.32c-0.16 0-0.16-0.16-0.32-0.16-0.16-0.16-0.48-0.16-0.64-0.16s-0.48 0-0.64 0c-0.64-0.16-1.12 0-1.6 0.32-0.32 0.16-0.64 0.32-0.8 0.64-0.32 0.16-0.48 0.48-0.64 0.64-0.16 0.32-0.32 0.64-0.48 0.96 0 0.16-0.16 0.48-0.16 0.64-3.68 0.8-6.4 4-6.4 7.84v5.92l-2.72 2.88v3.84c0 0.48 0.48 0.96 0.96 0.96h6.72c0 2.72 2.24 4.96 4.96 4.96 1.12 0 2.24-0.48 3.040-1.12 0.32-0.16 0.48-0.48 0.64-0.64s0.16-0.32 0.32-0.32c0.16-0.32 0.32-0.48 0.48-0.8s0.16-0.64 0.32-0.96c0-0.32 0.16-0.64 0.16-0.96v0h6.88c0.48 0 0.96-0.48 0.96-0.96v-3.84l-2.88-2.72v-0.96h-2.24v1.76l0.64 0.64 2.24 2.080v1.76h-20.8v-1.76l2.080-2.24 0.64-0.64v-6.88c0-2.72 1.92-5.12 4.64-5.76l1.6-0.32v-1.44c0-0.8 0.64-1.44 1.44-1.44h0.16c0.8 0 1.44 0.64 1.44 1.44v1.6l1.6 0.32c2.72 0.64 4.64 3.040 4.64 5.76v-2.4h1.76c-0.32-0.8-0.64-1.44-1.12-2.080h-2.24v-2.24zM16.64 25.92c0 1.44-1.28 2.72-2.72 2.72s-2.72-1.28-2.72-2.72h5.44z"></path>
<path fill="rgb(0, 0, 0)" d="M21.6 12.8h2.24v2.080h-2.24v-2.080z"></path>
<path fill="rgb(0, 0, 0)" d="M20.16 5.76v2.24h2.24c-0.64-0.96-1.28-1.6-2.24-2.24z"></path>
<path fill="rgb(0, 0, 0)" d="M21.6 12.32v0.48h2.24v-0.48c0-0.8-0.16-1.6-0.32-2.4h-1.76v2.4z"></path>
<path fill="rgb(0, 0, 0)" d="M21.6 14.88h2.24v2.72h-2.24v-2.72z"></path>
<path fill="rgb(255, 255, 255)" d="M10.4 4.48c0-0.16 0-0.48 0.16-0.64-0.16 0.32-0.16 0.48-0.16 0.64z"></path>
<path fill="rgb(255, 255, 255)" d="M10.88 2.88c0.16-0.16 0.32-0.48 0.64-0.64-0.32 0.16-0.48 0.48-0.64 0.64z"></path>
<path fill="rgb(255, 255, 255)" d="M18.4 27.84c-0.16 0.32-0.32 0.64-0.48 0.8 0.16-0.16 0.32-0.48 0.48-0.8z"></path>
<path fill="rgb(255, 255, 255)" d="M11.52 2.24c0.16-0.32 0.48-0.48 0.8-0.64-0.32 0.16-0.64 0.32-0.8 0.64z"></path>
<path fill="rgb(255, 255, 255)" d="M18.72 27.040c0-0.32 0.16-0.64 0.16-0.96v0c-0.16 0.32-0.16 0.64-0.16 0.96z"></path>
<path fill="rgb(255, 255, 255)" d="M16.48 2.4c-0.16-0.16-0.32-0.32-0.48-0.48 0.16 0.16 0.32 0.32 0.48 0.48z"></path>
<path fill="rgb(255, 255, 255)" d="M13.92 1.12c0.16 0 0.48 0 0.64 0-0.16 0.16-0.48 0-0.64 0z"></path>
<path fill="rgb(255, 255, 255)" d="M16.96 29.76c0.32-0.16 0.48-0.48 0.64-0.64-0.16 0.16-0.32 0.48-0.64 0.64z"></path>
<path fill="rgb(255, 255, 255)" d="M14.56 1.28c0.16 0 0.48 0.16 0.64 0.16-0.16-0.16-0.48-0.16-0.64-0.16z"></path>
<path fill="rgb(255, 255, 255)" d="M15.52 1.6c0.16 0.16 0.32 0.16 0.48 0.32-0.16-0.16-0.32-0.16-0.48-0.32z"></path>
</svg>
