<?xml version="1.0" encoding="utf-8"?>
<!-- Generated by IcoMoon.io -->
<!DOCTYPE svg PUBLIC "-//W3C//DTD SVG 1.1//EN" "http://www.w3.org/Graphics/SVG/1.1/DTD/svg11.dtd">
<svg version="1.1" xmlns="http://www.w3.org/2000/svg" xmlns:xlink="http://www.w3.org/1999/xlink" width="32" height="32" viewBox="0 0 32 32">
<path fill="#444444" d="M29.76 18.24l-6.080-0.8-2.4-10.56c-0.16-0.48-0.48-0.8-0.96-0.96-0.8-0.16-1.44 0.32-1.6 0.96l-3.36 14.080-3.2-9.76c-0.16-0.48-0.48-0.8-0.96-0.8-0.64-0.16-1.28 0.16-1.44 0.8l-1.76 6.4-6.080 0.64c-0.16 0-0.32 0.16-0.32 0.32s0.16 0.48 0.32 0.48l7.040 0.8c0.48 0 0.96-0.32 1.12-0.8v-0.16l0.96-3.2 3.36 10.080c0.16 0.32 0.48 0.64 0.8 0.8 0.64 0.16 1.28-0.16 1.44-0.8v0l3.2-12.64 1.28 5.92v0.16c0.16 0.64 0.64 0.96 1.28 0.96l7.2-0.96c0.16 0 0.32-0.16 0.32-0.32 0.16-0.48 0-0.64-0.16-0.64z"></path>
</svg>
