<?xml version="1.0" encoding="utf-8"?>
<!-- Generated by IcoMoon.io -->
<!DOCTYPE svg PUBLIC "-//W3C//DTD SVG 1.1//EN" "http://www.w3.org/Graphics/SVG/1.1/DTD/svg11.dtd">
<svg version="1.1" xmlns="http://www.w3.org/2000/svg" xmlns:xlink="http://www.w3.org/1999/xlink" width="32" height="32" viewBox="0 0 32 32">
<path fill="#444444" d="M12.64 10.88h3.84c0.64 0 1.12-0.48 1.12-1.12s-0.48-1.12-1.12-1.12h-3.84c-0.64 0-1.12 0.48-1.12 1.12s0.48 1.12 1.12 1.12z"></path>
<path fill="#444444" d="M24.48 13.28h-11.84c-0.64 0-1.12 0.48-1.12 1.12s0.48 1.12 1.12 1.12h11.68c0.8 0 1.28-0.48 1.28-1.12s-0.48-1.12-1.12-1.12z"></path>
<path fill="#444444" d="M24.48 17.92h-11.84c-0.64 0-1.12 0.48-1.12 1.12s0.48 1.12 1.12 1.12h11.68c0.64 0 1.12-0.48 1.12-1.12s-0.32-1.12-0.96-1.12z"></path>
<path fill="#444444" d="M27.52 3.2h-17.6c-1.6 0-2.88 1.28-2.88 2.88v9.12h-2.24c-1.6 0-2.88 1.28-2.88 2.88v7.2c0 2.080 1.6 3.68 3.68 3.68 0 0 0 0 0 0s0 0 0 0h19.84c2.72 0 4.96-2.24 4.96-4.96v-17.92c0-1.6-1.28-2.88-2.88-2.88zM4.16 18.080c0-0.32 0.32-0.64 0.64-0.64h0.16l-0.8 0.64zM7.040 25.28c0 0.8-0.64 1.44-1.44 1.44 0 0-0.16 0-0.16 0l1.6-1.6v0.16zM7.040 24l-2.24 2.24c-0.16-0.16-0.32-0.48-0.48-0.64l2.72-2.72v1.12zM7.040 21.92l-2.72 2.72v-1.12l2.72-2.72v1.12zM7.040 19.68l-2.88 2.72v-1.12l2.72-2.72v1.12zM7.040 17.6l-2.72 2.72v-1.12l1.6-1.6h1.12zM28.16 24c0 1.44-1.12 2.72-2.72 2.72h-16.32c0.16-0.48 0.32-0.96 0.32-1.44 0 0 0 0 0 0v-19.2c0-0.32 0.32-0.64 0.64-0.64h17.6c0.32 0 0.64 0.32 0.64 0.64v17.92z"></path>
</svg>
