<?xml version="1.0" encoding="utf-8"?>
<!-- Generated by IcoMoon.io -->
<!DOCTYPE svg PUBLIC "-//W3C//DTD SVG 1.1//EN" "http://www.w3.org/Graphics/SVG/1.1/DTD/svg11.dtd">
<svg version="1.1" xmlns="http://www.w3.org/2000/svg" xmlns:xlink="http://www.w3.org/1999/xlink" width="32" height="32" viewBox="0 0 32 32">
<path fill="#444444" d="M10.88 5.6h18.72v4h-18.72v-4z"></path>
<path fill="#444444" d="M10.88 13.6h18.72v4h-18.72v-4z"></path>
<path fill="#444444" d="M10.88 21.76h18.72v4h-18.72v-4z"></path>
<path fill="#444444" d="M6.88 7.52c0 1.149-0.931 2.080-2.080 2.080s-2.080-0.931-2.080-2.080c0-1.149 0.931-2.080 2.080-2.080s2.080 0.931 2.080 2.080z"></path>
<path fill="#444444" d="M6.88 15.68c0 1.149-0.931 2.080-2.080 2.080s-2.080-0.931-2.080-2.080c0-1.149 0.931-2.080 2.080-2.080s2.080 0.931 2.080 2.080z"></path>
<path fill="#444444" d="M7.2 23.52c0 1.237-1.003 2.24-2.24 2.24s-2.24-1.003-2.24-2.24c0-1.237 1.003-2.24 2.24-2.24s2.24 1.003 2.24 2.24z"></path>
</svg>
