<?xml version="1.0" encoding="utf-8"?>
<!-- Generated by IcoMoon.io -->
<!DOCTYPE svg PUBLIC "-//W3C//DTD SVG 1.1//EN" "http://www.w3.org/Graphics/SVG/1.1/DTD/svg11.dtd">
<svg version="1.1" xmlns="http://www.w3.org/2000/svg" xmlns:xlink="http://www.w3.org/1999/xlink" width="32" height="32" viewBox="0 0 32 32">
<path fill="#444444" d="M12.96 6.72c0.48 0 0.96-0.48 0.96-0.96 0-0.64 0.8-1.12 1.6-1.12s1.6 0.48 1.6 1.12c0 0.48 0.48 0.96 0.96 0.96s0.96-0.48 0.96-0.96c0-1.76-1.6-3.2-3.52-3.2s-3.52 1.44-3.52 3.2c0 0.48 0.48 0.96 0.96 0.96z"></path>
<path fill="#444444" d="M10.88 12.96c-0.48 0-0.96 0.48-0.96 1.12l0.8 11.040c0 0.48 0.48 0.96 0.96 0.96 0 0 0 0 0 0 0.48 0 0.96-0.48 0.96-1.12l-0.8-11.040c0-0.64-0.48-0.96-0.96-0.96z"></path>
<path fill="#444444" d="M20.32 12.96c-0.48 0-0.96 0.32-1.12 0.96l-0.8 11.040c0 0.48 0.32 0.96 0.96 1.12 0 0 0 0 0 0 0.48 0 0.96-0.48 0.96-0.96l0.8-11.040c0.16-0.64-0.16-1.12-0.8-1.12z"></path>
<path fill="#444444" d="M15.52 12.96c-0.48 0-0.96 0.48-0.96 0.96v11.040c0 0.48 0.48 0.96 0.96 0.96s0.96-0.48 0.96-0.96v-11.040c0.16-0.48-0.32-0.96-0.96-0.96z"></path>
<path fill="#444444" d="M26.88 7.2c0-1.92-2.24-3.52-6.080-4.32-0.48-0.16-1.12 0.16-1.12 0.8-0.16 0.48 0.16 1.12 0.8 1.12 3.36 0.64 4.48 1.76 4.48 2.4 0 1.12-3.68 2.88-9.28 2.88s-9.28-1.76-9.28-2.88c0-0.48 1.12-1.6 4.32-2.4 0.48-0.16 0.8-0.64 0.64-1.28-0.16-0.48-0.64-0.8-1.12-0.64-3.84 0.8-5.92 2.4-5.92 4.32 0 0.64 0.32 1.28 0.8 1.76l2.080 17.6c0 3.040 7.68 3.040 8.48 3.040s8.48-0.16 8.48-3.040l2.080-17.76c0.48-0.32 0.64-0.96 0.64-1.6zM22.080 26.4c-0.32 0.48-2.72 1.28-6.56 1.28s-6.080-0.8-6.56-1.28l-1.92-16c2.24 0.96 5.28 1.44 8.48 1.44 3.040 0 6.24-0.48 8.48-1.44l-1.92 16z"></path>
</svg>
