<?xml version="1.0" encoding="utf-8"?>
<!-- Generated by IcoMoon.io -->
<!DOCTYPE svg PUBLIC "-//W3C//DTD SVG 1.1//EN" "http://www.w3.org/Graphics/SVG/1.1/DTD/svg11.dtd">
<svg version="1.1" xmlns="http://www.w3.org/2000/svg" xmlns:xlink="http://www.w3.org/1999/xlink" width="32" height="32" viewBox="0 0 32 32">
<path fill="#444444" d="M1.76 21.28c0 0.64 0.48 1.12 1.12 1.12h4.16v5.28c0 0.32 0.16 0.8 0.64 0.96 0.16 0.16 0.32 0.16 0.48 0.16s0.48 0 0.64-0.16l8.48-6.24h11.84c0.64 0 1.12-0.48 1.12-1.12v-15.040c0-0.64-0.48-1.12-1.12-1.12h-26.24c-0.64 0-1.12 0.48-1.12 1.12v15.040zM3.84 7.36h24.16v12.8h-11.040c-0.16 0-0.48 0-0.64 0.16l-7.2 5.28v-4.32c0-0.64-0.48-1.12-1.12-1.12h-4.16v-12.8z"></path>
<path fill="#444444" d="M8.96 12.32c-2.24 0-2.24 3.52 0 3.52s2.4-3.52 0-3.52z"></path>
<path fill="#444444" d="M16 15.84c2.24 0 2.24-3.52 0-3.52s-2.4 3.52 0 3.52z"></path>
<path fill="#444444" d="M22.88 15.84c2.24 0 2.24-3.52 0-3.52s-2.24 3.52 0 3.52z"></path>
</svg>
