<?xml version="1.0" encoding="utf-8"?>
<!-- Generated by IcoMoon.io -->
<!DOCTYPE svg PUBLIC "-//W3C//DTD SVG 1.1//EN" "http://www.w3.org/Graphics/SVG/1.1/DTD/svg11.dtd">
<svg version="1.1" xmlns="http://www.w3.org/2000/svg" xmlns:xlink="http://www.w3.org/1999/xlink" width="32" height="32" viewBox="0 0 32 32">
<path fill="#444444" d="M21.76 18.080v-11.36c0-3.2-2.56-5.76-5.76-5.76h-0.64c-3.2 0-5.76 2.56-5.76 5.76v11.52h12.16z"></path>
<path fill="#444444" d="M19.36 31.040c0-1.92-1.6-3.68-3.68-3.68s-3.68 1.6-3.68 3.68h7.36z"></path>
<path fill="#444444" d="M23.040 16c-0.48 0-0.8 0.32-0.8 0.8v5.92c0 1.6-1.28 2.72-2.88 2.72 0 0 0 0 0 0h-7.36c-1.6 0-2.88-1.28-2.88-2.72v-5.92c0-0.48-0.32-0.8-0.8-0.8s-0.8 0.32-0.8 0.8v5.92c0 2.4 1.92 4.32 4.32 4.32h7.52c0 0 0 0 0 0 2.4 0 4.32-1.92 4.32-4.32v-5.92c0.16-0.48-0.32-0.8-0.64-0.8z"></path>
<path fill="#444444" d="M5.44 16.96h1.76v2.4h-1.76v-2.4z"></path>
<path fill="#444444" d="M25.92 16.96h-1.76v2.24h1.76z"></path>
<path fill="#444444" d="M14.88 18.4l-4.32 4.32c0.16 0.32 0.48 0.64 0.64 0.8l5.12-5.12h-1.44zM21.76 18.4l-6.88 6.72h1.12c0.16 0 0.32 0 0.48 0l5.28-5.28c0-0.16 0-0.32 0-0.48v-0.96zM10.4 18.4l-0.8 0.8v0.16c0 0.48 0 0.8 0.16 1.12l2.24-2.24h-1.6zM12.64 18.4l-2.72 2.72c0.16 0.32 0.32 0.64 0.48 1.12l3.84-3.84h-1.6zM9.6 18.4v0 0 0zM21.6 20.8l-4.32 4.16c2.24-0.48 3.84-2.080 4.32-4.16zM19.36 18.4l-6.4 6.24c0.32 0.16 0.8 0.32 1.12 0.32l6.72-6.56h-1.44zM17.12 18.4l-5.44 5.44c0.32 0.16 0.64 0.48 0.96 0.64l6.080-6.080h-1.6z"></path>
</svg>
