<?xml version="1.0" encoding="UTF-8" standalone="no"?>
<svg
   xmlns:dc="http://purl.org/dc/elements/1.1/"
   xmlns:cc="http://creativecommons.org/ns#"
   xmlns:rdf="http://www.w3.org/1999/02/22-rdf-syntax-ns#"
   xmlns:svg="http://www.w3.org/2000/svg"
   xmlns="http://www.w3.org/2000/svg"
   viewBox="0 0 21.333332 21.333332"
   height="21.333332"
   width="21.333332"
   xml:space="preserve"
   id="svg2"
   version="1.1"><metadata
     id="metadata8"><rdf:RDF><cc:Work
         rdf:about=""><dc:format>image/svg+xml</dc:format><dc:type
           rdf:resource="http://purl.org/dc/dcmitype/StillImage" /></cc:Work></rdf:RDF></metadata><defs
     id="defs6"><clipPath
       id="clipPath22"
       clipPathUnits="userSpaceOnUse"><path
         id="path20"
         d="M 0,16 H 16 V 0 H 0 Z" /></clipPath></defs><g
     transform="matrix(1.3333333,0,0,-1.3333333,0,21.333333)"
     id="g10"><g
       transform="translate(8.4996,12.5001)"
       id="g12"><path
         id="path14"
         style="fill:#000000;fill-opacity:1;fill-rule:nonzero;stroke:none"
         d="M 0,0 V -2.5 H -5.5 V -3 -3.5 H -5.999 V -7 h -1 V -7.5 H -7.5 v -5 H 6.501 v 5 H 6 V -7 H 5.501 v 0.5 0.5 1.5 h -1.5 V -3 -2.5 H 1.5 V 0 Z M 1.5,-3 H 3 V -4.5 H 1.5 Z m -3.999,0 H 0 V -4.5 -5 -6 H -0.499 V -6.5 H -1 V -7 h -1 v 3.5 h -0.499 z m -2.5,0 H -3 V -3.5 H -3.499 V -7 H -4.5 v 3.5 h -0.499 z" /></g><g
       id="g16"><g
         clip-path="url(#clipPath22)"
         id="g18"><g
           transform="translate(3,12)"
           id="g24"><path
             id="path26"
             style="fill:#000000;fill-opacity:1;fill-rule:nonzero;stroke:none"
             d="M 0,0 C 0.788,0 1.463,0.46 1.789,1.122 2.061,0.747 2.501,0.5 3,0.5 3.566,0.5 4.053,0.817 4.308,1.28 4.488,1.107 4.731,1 5,1 5.379,1 5.706,1.214 5.875,1.525 5.916,1.514 5.956,1.5 6,1.5 6.276,1.5 6.5,1.724 6.5,2 6.5,2.276 6.276,2.5 6,2.5 5.956,2.5 5.916,2.486 5.875,2.475 5.706,2.786 5.379,3 5,3 4.731,3 4.488,2.893 4.308,2.72 4.053,3.183 3.566,3.5 3,3.5 2.501,3.5 2.061,3.253 1.789,2.878 1.463,3.54 0.788,4 0,4 -1.105,4 -2,3.105 -2,2 -2,0.895 -1.105,0 0,0" /></g></g></g></g></svg>