<?xml version="1.0" encoding="utf-8"?>
<!-- Generated by IcoMoon.io -->
<!DOCTYPE svg PUBLIC "-//W3C//DTD SVG 1.1//EN" "http://www.w3.org/Graphics/SVG/1.1/DTD/svg11.dtd">
<svg version="1.1" xmlns="http://www.w3.org/2000/svg" xmlns:xlink="http://www.w3.org/1999/xlink" width="32" height="32" viewBox="0 0 32 32">
<path fill="#444444" d="M15.84 20.48c0.16 0 0.32 0.16 0.48 0.16-0.32 0-0.32 0-0.48-0.16v0z"></path>
<path fill="#444444" d="M16.32 20.64v0c0 0 0 0 0 0s0 0 0 0z"></path>
<path fill="#444444" d="M21.12 20c-0.16 0.16-0.32 0.16-0.48 0.16v0c0 0.16 0.16 0 0.48-0.16z"></path>
<path fill="#444444" d="M21.28 20c0 0 0 0 0 0-0.16 0-0.16 0 0 0-0.16 0-0.16 0 0 0z"></path>
<path fill="#444444" d="M16 6.080l-3.040 2.88c-0.16 0.32-0.48 0.64-0.64 0.96 0 0-0.16 0.16-0.16 0.16 1.44-0.48 3.040-0.48 4.48 0l1.92-1.92c1.44-1.44 3.84-1.44 5.28 0s1.44 3.84 0 5.28l-2.24 2.24-0.48 0.32-0.64 0.64c-0.64 0.64-1.44 0.96-2.4 1.12v0c0 0 0 0 0 0-0.16 0-0.32 0-0.48 0-0.32 0-0.48 0-0.48 0v0 0c-0.64-0.16-1.44-0.48-1.92-0.96-0.48-0.64-0.8-1.28-0.96-2.080 0 0 0 0 0 0-0.64 0-1.28 0.32-1.76 0.8l-0.96 0.96c0.32 0.8 0.8 1.6 1.6 2.4 0.64 0.64 1.44 1.28 2.4 1.6 0.16 0 0.32 0.16 0.48 0.16s0.32 0.16 0.48 0.16c0 0 0 0 0 0s0 0 0 0c1.44 0.32 2.88 0.16 4.32-0.32 0.16 0 0.32-0.16 0.48-0.16 0 0 0 0 0 0s0 0 0.16 0c0 0 0.16 0 0.16-0.16 0 0 0 0 0 0 0.48-0.32 0.96-0.64 1.44-1.12l3.040-3.040c2.72-2.72 2.72-7.2 0-9.92-2.88-2.72-7.36-2.72-10.080 0z"></path>
<path fill="#444444" d="M16.32 25.6l3.040-3.040c0.32-0.32 0.48-0.48 0.64-0.8 0 0 0.16-0.16 0.16-0.16-1.44 0.32-3.040 0.32-4.32 0l-1.92 1.92c-1.44 1.44-3.84 1.44-5.28 0s-1.44-3.84 0-5.28l2.24-2.24 0.32-0.48 0.64-0.64c0.64-0.64 1.44-0.96 2.4-1.12v0 0c0.16 0 0.32 0 0.48 0 0.32 0 0.48 0 0.48 0v0c0 0 0 0 0 0 0.64 0.16 1.44 0.48 1.92 0.96s0.8 1.28 0.96 1.92c0 0 0 0 0 0 0.64 0 1.28-0.32 1.76-0.8l0.96-0.8c-0.32-0.8-0.8-1.6-1.6-2.4-0.64-0.64-1.44-1.28-2.4-1.6-0.16 0-0.32-0.16-0.48-0.16s-0.32-0.16-0.48-0.16c0 0 0 0 0 0s0 0 0 0c-1.44-0.16-2.88-0.16-4.32 0.48-0.16 0.16-0.32 0.16-0.48 0.32 0 0 0 0 0 0s0 0-0.16 0c0 0-0.16 0-0.16 0.16v0c-0.48 0.16-0.96 0.64-1.28 0.96l-3.040 3.040c-2.72 2.72-2.72 7.2 0 9.92s7.2 2.72 9.92 0z"></path>
<path fill="#444444" d="M21.44 19.84c0 0 0 0 0 0s0 0 0 0z"></path>
<path fill="#444444" d="M21.12 20c0 0 0 0 0 0s0 0 0 0z"></path>
<path fill="#444444" d="M17.12 17.6c0 0 0.16 0 0.48 0v0c-0.16 0-0.32 0-0.48 0v0z"></path>
<path fill="#444444" d="M16.16 20.64c0 0 0 0 0 0s0 0 0 0z"></path>
<path fill="#444444" d="M17.6 17.76v0c0.16 0 0.32 0 0.48 0 0 0 0 0 0 0-0.16 0-0.32 0-0.48 0z"></path>
<path fill="#444444" d="M18.080 17.6c0 0 0 0 0 0s0 0 0 0 0 0 0 0z"></path>
</svg>
