<?xml version="1.0" encoding="utf-8"?>
<!-- Generated by IcoMoon.io -->
<!DOCTYPE svg PUBLIC "-//W3C//DTD SVG 1.1//EN" "http://www.w3.org/Graphics/SVG/1.1/DTD/svg11.dtd">
<svg version="1.1" xmlns="http://www.w3.org/2000/svg" xmlns:xlink="http://www.w3.org/1999/xlink" width="32" height="32" viewBox="0 0 32 32">
<path fill="#444444" d="M30.080 15.2l-5.6 5.6c-0.32 0.32-0.64 0-0.64-0.32v-3.84h-2.88c-1.28 0-2.4-1.12-2.4-2.4v0c0-1.28 1.12-2.4 2.4-2.4h2.88v-3.68c0-0.32 0.48-0.48 0.64-0.32l5.6 5.6c0.48 0.48 0.48 1.28 0 1.76zM18.24 4.8h-13.6l8.8 4.48c0.48 0.16 0.8 0.64 0.8 1.12v13.44h4.16c0.32 0 0.64-0.32 0.64-0.64v-2.88c0-0.64 0.48-1.12 1.12-1.12v0c0.64 0 1.12 0.48 1.12 1.12v4.8c0 0.64-0.48 1.28-1.28 1.28h-5.76v3.36c0 0.64-0.64 0.96-1.28 0.64l-9.92-5.92c-0.48-0.32-0.8-0.8-0.8-1.44v-19.2c0-0.64 0.64-1.28 1.28-1.28h16.48c0.8 0 1.28 0.64 1.28 1.28v4.64c0.16 0.48-0.48 1.12-1.12 1.12v0c-0.64 0-1.12-0.48-1.12-1.12v-3.040c0-0.32-0.32-0.64-0.8-0.64z"></path>
</svg>
