<?xml version="1.0" encoding="UTF-8" standalone="no"?>
<svg
   xmlns:dc="http://purl.org/dc/elements/1.1/"
   xmlns:cc="http://creativecommons.org/ns#"
   xmlns:rdf="http://www.w3.org/1999/02/22-rdf-syntax-ns#"
   xmlns:svg="http://www.w3.org/2000/svg"
   xmlns="http://www.w3.org/2000/svg"
   viewBox="0 0 21.333332 21.333332"
   height="21.333332"
   width="21.333332"
   xml:space="preserve"
   id="svg2"
   version="1.1"><metadata
     id="metadata8"><rdf:RDF><cc:Work
         rdf:about=""><dc:format>image/svg+xml</dc:format><dc:type
           rdf:resource="http://purl.org/dc/dcmitype/StillImage" /></cc:Work></rdf:RDF></metadata><defs
     id="defs6"><clipPath
       id="clipPath18"
       clipPathUnits="userSpaceOnUse"><path
         id="path16"
         d="M 0,16 H 16 V 0 H 0 Z" /></clipPath></defs><g
     transform="matrix(1.3333333,0,0,-1.3333333,0,21.333333)"
     id="g10"><g
       id="g12"><g
         clip-path="url(#clipPath18)"
         id="g14"><g
           transform="translate(14.068,3.7617)"
           id="g20"><path
             id="path22"
             style="fill:#000000;fill-opacity:1;fill-rule:nonzero;stroke:none"
             d="M 0,0 C -1.27,0.635 -0.781,0.149 -2.339,0.798 -3.898,1.447 -4.267,1.659 -4.267,1.659 L -4.28,3.146 c 0,0 0.583,0.445 0.765,1.851 0.365,-0.105 0.488,0.43 0.508,0.772 0.021,0.33 0.215,1.36 -0.231,1.268 0.092,0.687 0.163,1.309 0.131,1.638 -0.112,1.155 -0.906,2.36 -2.912,2.448 C -7.724,11.035 -8.832,9.829 -8.943,8.674 -8.975,8.345 -8.91,7.724 -8.819,7.035 -9.264,7.128 -9.073,6.097 -9.053,5.767 -9.031,5.425 -8.911,4.888 -8.546,4.994 -8.364,3.587 -7.78,3.139 -7.78,3.139 L -7.795,1.644 c 0,0 -0.369,-0.226 -1.928,-0.875 C -11.281,0.12 -10.792,0.635 -12.062,0 c -2.006,-1.003 -2.006,-3.762 -2.006,-3.762 h 8.049 7.951 c 0,0 0.074,2.759 -1.932,3.762" /></g></g></g></g></svg>