<?xml version="1.0" encoding="UTF-8" standalone="no"?>
<svg
   xmlns:dc="http://purl.org/dc/elements/1.1/"
   xmlns:cc="http://creativecommons.org/ns#"
   xmlns:rdf="http://www.w3.org/1999/02/22-rdf-syntax-ns#"
   xmlns:svg="http://www.w3.org/2000/svg"
   xmlns="http://www.w3.org/2000/svg"
   viewBox="0 0 21.333332 21.333332"
   height="21.333332"
   width="21.333332"
   xml:space="preserve"
   id="svg2"
   version="1.1"><metadata
     id="metadata8"><rdf:RDF><cc:Work
         rdf:about=""><dc:format>image/svg+xml</dc:format><dc:type
           rdf:resource="http://purl.org/dc/dcmitype/StillImage" /></cc:Work></rdf:RDF></metadata><defs
     id="defs6"><clipPath
       id="clipPath18"
       clipPathUnits="userSpaceOnUse"><path
         id="path16"
         d="M 0,16 H 16 V 0 H 0 Z" /></clipPath></defs><g
     transform="matrix(1.3333333,0,0,-1.3333333,0,21.333333)"
     id="g10"><g
       id="g12"><g
         clip-path="url(#clipPath18)"
         id="g14"><g
           transform="translate(10.3847,10.8808)"
           id="g20"><path
             id="path22"
             style="fill:#000000;fill-opacity:1;fill-rule:nonzero;stroke:none"
             d="m 0,0 c -0.34,0.319 -0.68,0.552 -0.998,0.722 -0.319,0.149 -0.68,0.234 -1.084,0.234 -0.467,0 -0.807,-0.106 -1.041,-0.298 -0.233,-0.191 -0.361,-0.509 -0.361,-0.934 0,-0.298 0.128,-0.574 0.383,-0.765 0.255,-0.212 0.552,-0.403 0.934,-0.595 0.383,-0.191 0.786,-0.382 1.211,-0.594 0.425,-0.213 0.829,-0.446 1.211,-0.744 0.382,-0.297 0.68,-0.637 0.935,-1.062 0.254,-0.425 0.382,-0.935 0.382,-1.529 0,-0.914 -0.255,-1.7 -0.744,-2.358 C 0.34,-8.582 -0.367,-9.006 -1.344,-9.24 v -1.641 h -2.008 v 1.556 c -0.552,0.064 -1.045,0.212 -1.661,0.467 -0.616,0.255 -1.147,0.574 -1.593,0.977 l 1.232,1.891 c 0.488,-0.361 0.956,-0.637 1.381,-0.829 0.446,-0.191 0.892,-0.276 1.338,-0.276 0.531,0 0.934,0.107 1.168,0.319 0.255,0.212 0.382,0.552 0.382,0.998 0,0.34 -0.127,0.616 -0.382,0.85 -0.255,0.234 -0.552,0.446 -0.935,0.658 -0.382,0.213 -0.785,0.425 -1.21,0.638 -0.425,0.212 -0.829,0.467 -1.211,0.764 -0.382,0.298 -0.68,0.638 -0.935,1.041 -0.255,0.404 -0.382,0.871 -0.382,1.445 0,0.934 0.255,1.72 0.765,2.336 0.509,0.616 1.147,0.995 2.039,1.165 v 2 h 2 v -2 C -0.74,3.034 -0.276,2.91 0.191,2.634 0.658,2.358 1.062,2.018 1.444,1.614 Z" /></g></g></g></g></svg>