<?xml version="1.0" encoding="utf-8"?>
<!-- Generated by IcoMoon.io -->
<!DOCTYPE svg PUBLIC "-//W3C//DTD SVG 1.1//EN" "http://www.w3.org/Graphics/SVG/1.1/DTD/svg11.dtd">
<svg version="1.1" xmlns="http://www.w3.org/2000/svg" xmlns:xlink="http://www.w3.org/1999/xlink" width="32" height="32" viewBox="0 0 32 32">
<path fill="#444444" d="M29.92 25.92l-6.88-7.2c1.12-1.76 1.6-3.84 1.6-5.92 0-6.24-5.12-11.36-11.36-11.36s-11.36 5.12-11.36 11.36c0 6.24 5.12 11.36 11.36 11.36 2.24 0 4.32-0.64 6.24-1.92l6.72 7.040c0 0 1.44 1.28 3.2-0.48 1.76-1.44 0.48-2.88 0.48-2.88zM5.92 12.96c0-4.16 3.36-7.52 7.52-7.52s7.52 3.36 7.52 7.52c0 1.92-0.8 3.84-2.24 5.28s-3.36 2.24-5.28 2.24c-4.32-0.16-7.52-3.52-7.52-7.52z"></path>
</svg>
