<?xml version="1.0" encoding="utf-8"?>
<!-- Generated by IcoMoon.io -->
<!DOCTYPE svg PUBLIC "-//W3C//DTD SVG 1.1//EN" "http://www.w3.org/Graphics/SVG/1.1/DTD/svg11.dtd">
<svg version="1.1" xmlns="http://www.w3.org/2000/svg" xmlns:xlink="http://www.w3.org/1999/xlink" width="32" height="32" viewBox="0 0 32 32">
<path fill="#444444" d="M16.64 30.4h-0.96c-1.44 0-2.56-0.96-2.88-2.4 0-0.32-0.16-0.48-0.48-0.48-0.48-0.16-1.12-0.32-1.6-0.64-0.16-0.16-0.48-0.16-0.64 0-1.28 0.8-2.72 0.64-3.68-0.32l-0.64-0.64c-0.96-0.96-1.12-2.56-0.32-3.68 0.16-0.16 0.16-0.48 0-0.64-0.32-0.48-0.48-1.12-0.64-1.6-0.16-0.32-0.32-0.48-0.48-0.48-1.44-0.32-2.4-1.44-2.4-2.88v-0.96c0-1.44 0.96-2.56 2.4-2.88 0.16 0 0.48-0.16 0.48-0.48 0.16-0.48 0.48-1.12 0.64-1.6 0.16-0.16 0.16-0.48 0-0.64v0c-0.8-1.12-0.64-2.72 0.32-3.68l0.64-0.64c0.48-0.64 1.28-0.96 2.080-0.96 0.64 0 1.12 0.16 1.6 0.48 0.16 0.16 0.48 0.16 0.64 0 0.48-0.16 1.12-0.32 1.6-0.48 0.32-0.16 0.48-0.32 0.48-0.64 0.32-1.44 1.44-2.4 2.88-2.4h0.8c1.44 0 2.56 0.96 2.88 2.4 0 0.32 0.16 0.48 0.48 0.48 0.48 0.16 1.12 0.48 1.6 0.64 0.16 0.16 0.48 0.16 0.64 0 1.28-0.8 2.72-0.64 3.68 0.32l0.8 0.8c0.96 0.96 1.12 2.56 0.32 3.68v0c-0.16 0.16-0.16 0.48 0 0.64 0.32 0.48 0.48 0.96 0.64 1.6 0 0.32 0.16 0.48 0.48 0.48v0c1.44 0.32 2.4 1.44 2.4 2.88v0.8c0 1.44-0.96 2.56-2.4 2.88h-0.16c-0.16 0-0.48 0.16-0.48 0.48-0.16 0.48-0.32 0.96-0.64 1.44-0.16 0.16-0.16 0.48 0 0.64v0c0.8 1.12 0.64 2.72-0.32 3.68l-0.64 0.64c-0.48 0.48-1.28 0.8-2.080 0.8v0c-0.64 0-1.12-0.16-1.6-0.48v0c-0.16-0.16-0.48-0.16-0.64 0-0.48 0.32-0.96 0.48-1.6 0.64-0.32 0.16-0.48 0.32-0.48 0.48v0c-0.16 1.76-1.44 2.72-2.72 2.72zM10.4 24.48c0.48 0 0.96 0.16 1.28 0.32 0.48 0.16 0.8 0.32 1.28 0.48 0.96 0.32 1.76 1.12 1.92 2.24 0 0.32 0.32 0.64 0.64 0.64h0.8c0.32 0 0.64-0.16 0.64-0.48v0c0.16-0.96 0.96-1.92 1.92-2.24 0.48-0.16 0.8-0.32 1.28-0.48 0.96-0.48 2.080-0.48 3.040 0.16v0c0.32 0.16 0.64 0.16 0.8-0.16l0.64-0.64c0.16-0.16 0.32-0.64 0.16-0.8v0c-0.64-0.8-0.64-2.080-0.16-2.88 0.16-0.32 0.32-0.8 0.48-1.28 0.32-0.96 1.12-1.76 2.24-1.92h0.16c0.32 0 0.48-0.32 0.48-0.64v-1.12c0-0.32-0.16-0.64-0.48-0.64v0c-0.96-0.16-1.92-0.96-2.24-1.92-0.16-0.48-0.32-0.8-0.48-1.28-0.48-0.96-0.48-2.080 0.16-2.88v0c0.16-0.32 0.16-0.64-0.16-0.8l-0.64-0.64c-0.16-0.16-0.64-0.32-0.8-0.16-0.96 0.64-2.080 0.64-3.040 0.16-0.48-0.16-0.8-0.32-1.28-0.48-0.96-0.32-1.76-1.12-1.92-2.24 0-0.32-0.32-0.64-0.64-0.64h-0.8c-0.32 0-0.64 0.16-0.64 0.48-0.16 1.12-0.96 1.92-1.92 2.24-0.48 0.16-0.96 0.32-1.28 0.48-0.96 0.48-2.24 0.48-3.040-0.16-0.32-0.16-0.64 0-0.8 0.16l-0.64 0.64c-0.16 0.16-0.32 0.48-0.16 0.8v0c0.64 0.8 0.64 2.080 0.16 3.040-0.16 0.32-0.32 0.8-0.48 1.28-0.32 0.96-1.12 1.76-2.24 1.92-0.32 0-0.48 0.32-0.48 0.64v0.8c0 0.32 0.16 0.64 0.48 0.64 0.96 0.16 1.92 0.96 2.24 1.92 0.16 0.48 0.32 0.8 0.48 1.28 0.48 0.96 0.48 2.080-0.16 3.040-0.16 0.32-0.16 0.64 0 0.8l0.8 0.8c0.16 0.16 0.64 0.32 0.8 0.16 0.48-0.48 1.12-0.64 1.6-0.64z"></path>
<path fill="#444444" d="M16.16 21.28c-2.88 0-5.12-2.24-5.12-5.12s2.24-5.12 5.12-5.12c2.88 0 5.12 2.24 5.12 5.12 0 2.72-2.4 5.12-5.12 5.12zM16.16 13.28c-1.6 0-2.88 1.28-2.88 2.88s1.28 2.88 2.88 2.88 2.88-1.28 2.88-2.88-1.28-2.88-2.88-2.88z"></path>
</svg>
