<?xml version="1.0" encoding="utf-8"?>
<!-- Generated by IcoMoon.io -->
<!DOCTYPE svg PUBLIC "-//W3C//DTD SVG 1.1//EN" "http://www.w3.org/Graphics/SVG/1.1/DTD/svg11.dtd">
<svg version="1.1" xmlns="http://www.w3.org/2000/svg" xmlns:xlink="http://www.w3.org/1999/xlink" width="32" height="32" viewBox="0 0 32 32">
<path fill="#444444" d="M28.32 30.24h-25.28c-0.8 0-1.28-0.64-1.28-1.28v-25.28c0-0.8 0.64-1.28 1.28-1.28h11.040c0.8 0 1.28 0.64 1.28 1.28s-0.48 1.28-1.28 1.28h-9.6v22.56h22.56v-9.28c0-0.8 0.64-1.28 1.28-1.28s1.28 0.64 1.28 1.28v10.72c0 0.64-0.48 1.28-1.28 1.28z"></path>
<path fill="#444444" d="M29.6 3.68v8c0 0.8-0.64 1.28-1.28 1.28-0.8 0-1.28-0.64-1.28-1.28v-4.8l-11.2 11.2c-0.32 0.32-0.64 0.32-0.96 0.32s-0.64-0.16-0.96-0.32c-0.48-0.48-0.48-1.28 0-1.92l11.2-11.2h-4.8c-0.8 0-1.28-0.64-1.28-1.28s0.64-1.28 1.28-1.28h8c0.16 0 0.16 0 0.32 0 0 0 0.16 0 0.16 0s0.16 0 0.16 0c0 0 0 0 0.16 0 0 0 0 0 0.16 0 0 0 0 0 0.16 0 0 0 0 0 0.16 0.16s0.32 0.32 0.32 0.48c0 0 0 0.16 0 0.16-0.32 0.32-0.32 0.48-0.32 0.48z"></path>
</svg>
