<?xml version="1.0" encoding="utf-8"?>
<!-- Generated by IcoMoon.io -->
<!DOCTYPE svg PUBLIC "-//W3C//DTD SVG 1.1//EN" "http://www.w3.org/Graphics/SVG/1.1/DTD/svg11.dtd">
<svg version="1.1" xmlns="http://www.w3.org/2000/svg" xmlns:xlink="http://www.w3.org/1999/xlink" width="32" height="32" viewBox="0 0 32 32">
<path fill="#444444" d="M16.48 14.24c-0.32-0.16-0.8 0-1.12 0.16l-2.080 2.080c-0.48 0.48-0.48 1.12 0 1.44 0.48 0.48 1.12 0.32 1.44 0l0.32-0.32v5.12c0 0.64 0.48 0.96 0.96 0.96s0.96-0.48 0.96-0.96v-7.68c0.16-0.32 0-0.64-0.48-0.8z"></path>
<path fill="#444444" d="M28.32 22.88v-15.2c0-1.92-1.6-3.36-3.36-3.36h-0.64v-1.44c0-0.64-0.48-0.96-0.96-0.96-0.64 0-0.96 0.48-0.96 0.96v1.28h-12.16v-1.28c0-0.64-0.48-0.96-0.96-0.96-0.64 0-0.96 0.48-0.96 0.96v1.28h-0.8c-1.92 0-3.36 1.6-3.36 3.36v19.2c0 1.92 1.6 3.36 3.36 3.36h9.12c0 0 0 0 0 0s0 0 0.16 0c0.48 0 10.56-1.12 11.36-6.88 0 0 0-0.16 0-0.16l0.16-0.16zM7.52 6.24h0.64v1.12c0 0.64 0.48 0.96 0.96 0.96 0.64 0 0.96-0.48 0.96-0.96v-1.12h11.84v1.12c0 0.64 0.48 0.96 0.96 0.96 0.64 0 0.96-0.48 0.96-0.96v-1.12h0.64c0.8 0 1.44 0.64 1.44 1.44v2.88h-19.68v-2.88c0-0.8 0.64-1.44 1.28-1.44zM20.48 20.32c-0.32 0.32-0.32 0.64-0.32 0.96 0.48 1.76 0.48 3.2-0.16 4.32-0.96 1.76-2.88 2.4-3.36 2.56h-9.12c-0.8 0-1.44-0.64-1.44-1.44v-14.4h20v8.96l-4.8-1.44c-0.16 0.16-0.48 0.32-0.8 0.48zM21.6 27.040c0.16-0.16 0.16-0.32 0.16-0.32 0.64-1.28 0.96-2.56 0.8-4.16l3.52 0.96c-0.48 1.76-2.4 2.88-4.48 3.52z"></path>
</svg>
