<?xml version="1.0" encoding="utf-8"?>
<!-- Generated by IcoMoon.io -->
<!DOCTYPE svg PUBLIC "-//W3C//DTD SVG 1.1//EN" "http://www.w3.org/Graphics/SVG/1.1/DTD/svg11.dtd">
<svg version="1.1" xmlns="http://www.w3.org/2000/svg" xmlns:xlink="http://www.w3.org/1999/xlink" width="32" height="32" viewBox="0 0 32 32">
<path fill="#444444" d="M11.84 18.88c-0.48 0.48-0.48 1.28 0 1.76s1.28 0.48 1.76 0l3.84-3.84c0.48-0.48 0.48-1.28 0-1.76l-3.84-3.68c-0.16-0.32-0.48-0.32-0.8-0.32s-0.64 0.16-0.8 0.32c-0.48 0.48-0.48 1.28 0 1.76l1.76 1.76h-10.72c-0.64 0-1.28 0.48-1.28 1.28 0 0.64 0.48 1.28 1.28 1.28h10.56l-1.76 1.44z"></path>
<path fill="#444444" d="M29.12 1.92h-20.96c-0.64 0-1.12 0.48-1.12 1.12v4.64c0 0.64 0.48 1.12 1.12 1.12s1.12-0.48 1.12-1.12v-3.68h18.72v24h-18.72v-4c0-0.64-0.48-1.12-1.12-1.12s-1.12 0.48-1.12 1.12v5.12c0 0.64 0.48 1.12 1.12 1.12h20.96c0.64 0 1.12-0.48 1.12-1.12v-26.24c-0.16-0.48-0.64-0.96-1.12-0.96z"></path>
</svg>
