<?xml version="1.0" encoding="UTF-8" standalone="no"?>
<svg
   xmlns:dc="http://purl.org/dc/elements/1.1/"
   xmlns:cc="http://creativecommons.org/ns#"
   xmlns:rdf="http://www.w3.org/1999/02/22-rdf-syntax-ns#"
   xmlns:svg="http://www.w3.org/2000/svg"
   xmlns="http://www.w3.org/2000/svg"
   viewBox="0 0 21.333332 21.333332"
   height="21.333332"
   width="21.333332"
   xml:space="preserve"
   id="svg2"
   version="1.1"><metadata
     id="metadata8"><rdf:RDF><cc:Work
         rdf:about=""><dc:format>image/svg+xml</dc:format><dc:type
           rdf:resource="http://purl.org/dc/dcmitype/StillImage" /></cc:Work></rdf:RDF></metadata><defs
     id="defs6"><clipPath
       id="clipPath18"
       clipPathUnits="userSpaceOnUse"><path
         id="path16"
         d="M 0,16 H 16 V 0 H 0 Z" /></clipPath></defs><g
     transform="matrix(1.3333333,0,0,-1.3333333,0,21.333333)"
     id="g10"><g
       id="g12"><g
         clip-path="url(#clipPath18)"
         id="g14"><g
           transform="translate(8,15.9568)"
           id="g20"><path
             id="path22"
             style="fill:#808080;fill-opacity:1;fill-rule:nonzero;stroke:none"
             d="m 0,0 c -4.406,0 -7.978,-3.572 -7.978,-7.978 0,-4.407 3.572,-7.979 7.978,-7.979 4.406,0 7.978,3.572 7.978,7.979 C 7.978,-3.572 4.406,0 0,0 m 0,-1.5 c 3.572,0 6.478,-2.906 6.478,-6.478 0,-3.573 -2.906,-6.479 -6.478,-6.479 -3.572,0 -6.478,2.906 -6.478,6.479 0,3.572 2.906,6.478 6.478,6.478" /></g><g
           transform="translate(8.0577,6.4784)"
           id="g24"><path
             id="path26"
             style="fill:#808080;fill-opacity:1;fill-rule:nonzero;stroke:none"
             d="M 0,0 H -0.072 C -0.334,0 -0.553,0.201 -0.575,0.462 L -0.953,5.003 C -0.998,5.54 -0.574,6 -0.036,6 V 6 C 0.502,6 0.926,5.54 0.881,5.003 L 0.502,0.462 C 0.481,0.201 0.262,0 0,0" /></g><g
           transform="translate(9.0216,4.4784)"
           id="g28"><path
             id="path30"
             style="fill:#808080;fill-opacity:1;fill-rule:nonzero;stroke:none"
             d="m 0,0 c 0,-0.552 -0.448,-1 -1,-1 -0.552,0 -1,0.448 -1,1 0,0.552 0.448,1 1,1 0.552,0 1,-0.448 1,-1" /></g></g></g></g></svg>