<?xml version="1.0" encoding="utf-8"?>
<!-- Generator: Adobe Illustrator 18.1.1, SVG Export Plug-In . SVG Version: 6.00 Build 0)  -->
<svg version="1.1" id="Layer_1" xmlns="http://www.w3.org/2000/svg" xmlns:xlink="http://www.w3.org/1999/xlink" x="0px" y="0px"
	 viewBox="-69 95.8 119.7 71.2" enable-background="new -69 95.8 119.7 71.2" xml:space="preserve">
<g>
	<path fill="#871726" d="M43.1,137.4c-57.6-59.9-102.8,0.1-102.8,0.1l0,0.1c11.9-9.3,23.3-13.4,34-16c-0.6,0.7-1.1,1.4-1.5,2.1
		c-1.6,2.5-2.7,5.5-3.2,8.5c-0.5,3-0.4,6.2,0.2,9.1c0.7,2.9,2,5.8,3.8,8.3c1.8,2.5,4.1,4.7,6.6,6.3c2.5,1.6,5.5,2.7,8.5,3.2
		c3,0.5,6.2,0.4,9.1-0.2v0l0,0l0,0c2.9-0.7,5.8-2,8.3-3.8c2.5-1.8,4.7-4.1,6.3-6.6c1.6-2.5,2.7-5.5,3.2-8.5c0.5-3,0.4-6.2-0.3-9.1
		c-0.7-2.9-2-5.8-3.8-8.3c0-0.1-0.1-0.1-0.1-0.2c19.4,5.5,31.7,15.3,31.7,15.3L43.1,137.4z"/>
	<g>
		<path fill="#FFFFFF" d="M11,141.1C11,141.1,10.9,141.1,11,141.1c-0.5,0-0.8-0.4-1.2-0.5c-0.2-0.1-0.4,0.1-0.6,0.1
			c-0.1,0-0.2-0.1-0.3-0.1c-0.1,0-0.2,0.1-0.3,0.2c0,0,0,0,0-0.1c-0.1,0-0.1,0.2-0.2,0.3c0-0.2,0.1-0.4-0.1-0.5
			c-0.2-0.1-0.4-0.1-0.5-0.1c-0.1,0-0.3-0.1-0.5,0c-0.1,0.1-0.1,0.2-0.2,0.3c-0.1,0.1,0-0.2,0-0.3c0-0.3-0.2-0.2-0.4-0.1
			c-0.1,0-0.2,0.1-0.3,0.1c0,0.1,0,0.1,0,0.2c0,0.2-0.1,0.1-0.1,0c0-0.2,0.1-0.4,0.2-0.5c0.2-0.3,0-0.3-0.1-0.4
			c-0.1-0.1-0.1-0.4-0.2-0.5c-0.1-0.2-0.4-0.3-0.6-0.4c-0.2-0.1-0.4-0.2-0.6-0.2c-0.2,0-0.4,0.1-0.6,0.2c-0.2,0.1-0.4,0.1-0.5,0
			c-0.1,0-0.1-0.1-0.2-0.1c-0.1-0.1-0.2,0-0.3,0c0-0.2,0.1-0.2-0.1-0.3C3.1,138.1,3,138,2.9,138c-0.2-0.1-0.3-0.1-0.4,0
			c0,0-0.3,0.2-0.2,0c0.1-0.1,0.1,0,0-0.2c0-0.1,0-0.1,0-0.2c0-0.1-0.1-0.1-0.2-0.1c-0.1,0-0.3,0.1-0.4,0c-0.1-0.1,0-0.1,0-0.1
			c0.2-0.1,0-0.1-0.2-0.1c-0.1,0-0.2,0.1-0.3,0.1c-0.2,0.1-0.2,0.3-0.4,0.3c-0.3,0.1-0.5-0.2-0.8-0.1c-0.1,0.1-0.2,0.1-0.3,0.2
			c-0.2,0-0.2-0.2-0.3-0.2c-0.1-0.1-0.2,0-0.4,0c-0.1,0-0.2-0.1-0.2-0.2c0,0-0.1,0-0.1,0c-0.1,0.1,0,0.1,0,0.2
			c0,0.2-0.1,0.2-0.2,0.3c-0.3,0.1,0,0.3,0.1,0.4c0.2,0.2,0.1,0.5-0.2,0.3c-0.1-0.1-0.2-0.2-0.1-0.3c0-0.2-0.1-0.3,0-0.4
			c0-0.1,0.2-0.2,0.1-0.3c0-0.1-0.2-0.1-0.3,0c-0.1,0.1-0.1,0.2-0.2,0.3c-0.1,0.1-0.2,0.1-0.3,0.1c-0.1,0-0.2,0.1-0.2,0.2
			c-0.1,0.1-0.2,0-0.3,0.2c-0.1,0.3,0,0.6-0.2,0.8c-0.1,0.1-0.2,0.1-0.1,0.2c0,0,0,0.1-0.1,0.1c-0.1,0-0.1-0.1-0.2-0.1
			c-0.2-0.2-0.5-0.1-0.8-0.1c-0.3,0.1-0.5,0.4-0.8,0.4c-0.3,0-0.5-0.2-0.8-0.4c-0.1-0.1-0.3-0.1-0.3-0.3c0,0,0-0.1,0-0.1
			c0-0.1-0.1,0-0.1-0.2c0-0.2,0-0.3,0-0.5c0-0.2,0-0.3,0.1-0.4c0-0.3-0.4-0.4-0.7-0.4c-0.3,0-0.6,0.2-0.9,0.2
			c-0.1,0-0.8,0.3-0.6-0.1c0.1-0.2,0.1-0.5,0-0.7c0-0.1,0-0.2,0.1-0.1c0,0.1,0.1-0.2,0.1-0.2c0-0.1,0-0.2,0-0.4c0-0.2,0-0.3,0.1-0.4
			c0-0.1,0.1-0.3-0.1-0.3c-0.3,0-0.5,0-0.7,0.2c-0.1,0.1-0.2,0.1-0.4,0.2c-0.2,0.1-0.1,0.2-0.1,0.3c0,0.1,0,0.1,0,0.2
			c0,0.1,0,0.1,0,0.2c0,0.1-0.1,0.1-0.1,0.1c0,0.1,0,0.4-0.1,0.3c-0.2-0.1-0.3,0-0.4,0.1c-0.2,0.1-0.4,0.3-0.6,0.2
			c-0.1,0-0.2,0-0.4-0.1c-0.1,0-0.2-0.1-0.3-0.2c-0.2-0.2-0.4-0.3-0.5-0.5c-0.2-0.2-0.2-0.5-0.3-0.8c-0.1-0.3-0.1-0.5,0-0.8
			c0.1-0.3,0-0.4-0.1-0.6c-0.1-0.3,0.1-0.6,0.2-0.8c0.2-0.2,0.4-0.4,0.6-0.5c0.2-0.2,0.5-0.2,0.8-0.3c0.1,0,0.2-0.1,0.3,0
			c0.1,0.1,0.1,0.1,0.2,0.1c0.1,0,0.1-0.1,0.2-0.2c0.1,0,0.2,0,0.2,0.1c0,0,0.2,0.1,0.2,0c0-0.1-0.1-0.1-0.2-0.2
			c-0.1-0.1,0-0.2-0.1-0.2c-0.1-0.1-0.2,0-0.3,0c0.1-0.2,0.2-0.1,0.4-0.1c0.1,0,0.3-0.1,0.4-0.2c0.3-0.1,0.6-0.2,0.9,0
			c0.1,0.1,0.2,0.1,0.3,0c0.1-0.1,0.2-0.2,0.4-0.1c0.1,0,0.3,0.1,0.4,0.2c0.1,0.1,0.1,0.3,0.2,0.4c0.1,0.3,0.3,0.5,0.5,0.7
			c0.1,0.1,0.6,0.5,0.6,0.1c0-0.3-0.1-0.7-0.3-1c-0.2-0.3-0.5-0.6-0.5-1c0-0.3,0.2-0.5,0.4-0.8c0.1-0.1,0.2-0.3,0.3-0.4
			c0.1-0.1,0.3-0.2,0.4-0.3c0.1-0.1,0.2-0.2,0.3-0.3c0.1-0.1,0.2-0.3,0-0.2c-0.2-0.2,0.2-0.2,0.2-0.4c0-0.1-0.1-0.2-0.1-0.3
			c-0.1-0.1-0.2-0.1-0.2-0.2c-0.1-0.2,0-0.4-0.1-0.5c0,0-0.1-0.2,0-0.2c0.1,0,0.1,0.1,0.1,0.1c0,0.1,0.2,0.1,0.2,0.3
			c0,0-0.1,0.3,0,0.2c0.1,0,0.2-0.4,0.2-0.5c0-0.1-0.1-0.2-0.1-0.3c0-0.1,0.1-0.1,0.2,0c0.1,0.1,0.1,0,0.2-0.1
			c0.1-0.1,0.1-0.2,0-0.3c0-0.1-0.1-0.1-0.1-0.2c0.2-0.1,0.4,0,0.5-0.2c-0.1,0-0.4,0.1-0.3,0c0-0.1,0.1-0.1,0.2-0.1
			c0.1,0,0.2-0.1,0.3-0.1c0.1-0.1,0.3-0.2,0.4-0.2c0,0,0.3-0.1,0.2-0.2c-0.1,0-0.2,0-0.3-0.1c-0.1-0.2,0.1-0.6,0.2-0.7
			C-4,125-4,125-4,124.8c0-0.2,0.2-0.1,0.3-0.1c0.1,0,0.2-0.1,0.3-0.2c0,0,0-0.1,0-0.2c0.1-0.1,0.2,0,0.3,0c0.1,0,0.3-0.2,0.3-0.2
			c0-0.1,0.1-0.2,0.2-0.2c0.2,0,0,0.3,0.2,0.2c0.2-0.1,0.2,0.1,0,0.1c-0.2,0-0.4,0.2-0.5,0.4c0,0.2,0,0.4,0.3,0.3
			c0.2-0.1,0.2-0.4,0.4-0.5c0.1-0.1,0.2-0.1,0.4-0.2c0.1-0.1,0.3-0.1,0.4-0.2c0.1-0.1,0-0.2,0.1-0.3c0.1-0.1,0.2-0.1,0.2-0.1
			c0.2-0.1-0.2-0.1-0.2-0.2c0,0,0.1-0.1,0-0.2c0-0.1-0.2,0-0.2,0.1c-0.1,0.1,0,0.4-0.2,0.4c-0.1,0-0.2,0-0.2,0.1c-0.1,0-0.2,0-0.3,0
			c-0.1,0-0.2,0-0.3-0.1c-0.1-0.1-0.3,0-0.3-0.1c0,0,0-0.1,0-0.1c0-0.1,0,0-0.1-0.1c-0.1,0,0-0.1,0-0.1c0.1-0.1,0-0.2-0.1-0.1
			c-0.1,0.1-0.2,0.1-0.3,0c-0.1-0.1,0.3-0.1,0.3-0.1c0.1-0.1,0.1-0.1,0.1-0.2c0-0.1,0-0.2,0-0.2c-0.2-0.2-0.5,0-0.7,0
			c-0.2,0.1-0.5,0.3-0.7,0.5c-0.1,0.1-0.2,0.2-0.2,0.4c0,0.1-0.1,0.2-0.1,0.3c-0.2,0.2,0.1-0.4,0.1-0.4c0,0-0.3-0.2-0.1-0.2
			c0.1,0,0.2,0,0.3-0.1c0.1-0.2,0.1-0.3,0.3-0.4c0.1-0.1,0.2-0.1,0.3-0.2c0.1-0.1,0.1-0.2,0.2-0.3c0.3-0.2,0.6-0.2,1-0.3
			c0.3-0.1,0.6,0,0.9-0.2c0.1-0.1,0.1-0.2,0.2-0.3c0-0.1,0.1-0.2,0.2-0.3c0.1-0.1,0.2-0.1,0.3-0.1c0.1-0.1,0.2-0.1,0.2-0.2
			c0-0.1,0.1-0.2,0-0.3c-0.1-0.1-0.1-0.1-0.1-0.2c0-0.1-0.1-0.2-0.2-0.2c-0.1,0-0.1,0-0.2,0c-0.1,0,0,0.1-0.1,0.1
			c-0.1,0-0.1-0.2-0.2-0.2c-0.1,0-0.2,0.1-0.3,0.2c-0.1,0.1-0.2,0.2-0.3,0.2c-0.1-0.2,0.4-0.4,0.5-0.5c0.1-0.1-0.2-0.1-0.2-0.1
			c-0.1,0-0.1,0-0.2-0.1c-0.1,0-0.1,0.1-0.2,0.1c0-0.3-0.2,0-0.3,0c0,0,0.1-0.1,0-0.2c0,0-0.1,0-0.2-0.1c-1.7-0.1-3.4-0.2-5.2-0.2
			c0,0-0.1,0.1-0.1,0.2c0,0.1,0.1,0.2,0.2,0.2c0.2,0.1,0.4,0.1,0.5,0.4c0.1,0.3,0,0.5-0.1,0.7c-0.1,0.1-0.2,0.2-0.3,0.2
			c-0.1,0.1-0.2,0.1-0.3,0.2c0,0.1,0.1,0.2,0.1,0.2c0,0,0.1,0,0.1,0.1c0.1,0.1,0,0.1,0,0.1c0.1,0.1,0.1,0.2,0.1,0.4
			c0,0.1,0.1,0.1,0.1,0.3c-0.1,0.1,0,0.1,0,0.2c0.1,0.1-0.1,0-0.1,0c-0.1-0.1-0.1,0-0.1,0.1c0,0.1-0.1,0.1-0.2,0.1
			c-0.1,0-0.2-0.1-0.2-0.2c-0.1-0.1-0.1-0.1-0.2-0.1c0,0,0,0,0-0.1c0,0-0.1-0.1-0.1-0.1c-0.1,0-0.2-0.2-0.2-0.3c0-0.1,0-0.2,0-0.3
			c0-0.1-0.1-0.1,0-0.2c0-0.1,0-0.1,0-0.2c-0.1-0.1-0.2,0-0.3,0c-0.2,0-0.3,0.1-0.5,0.1c-0.1,0-0.2-0.1-0.3-0.1
			c-0.1,0-0.3,0-0.4-0.1c-0.1,0-0.2-0.1-0.3-0.1c-0.1-0.1-0.3-0.1-0.4-0.1c-0.1,0-0.2-0.1-0.3,0c-0.1,0-0.3,0.2-0.4,0.2
			c0-0.1,0-0.2,0-0.3c0-0.1,0-0.2,0-0.2c0-0.1,0-0.1-0.1-0.2c-0.1,0-0.2,0-0.3,0.1c-0.2,0.1-0.1-0.3-0.1-0.5c0-0.1,0.1-0.3,0.1-0.4
			c0-0.1,0.1-0.1,0.1-0.2c0,0,0,0,0,0c-3.1,0.2-6.3,0.5-9.5,1.1c0,0-0.1,0.1-0.1,0.1c-0.2,0.2-0.1,0.1-0.1,0.1
			c-0.1,0.1-0.2,0.3-0.1,0.2c0-0.1-0.1,0.1-0.1,0.2c0,0.1-0.1,0.1-0.1,0.1c0,0,0,0-0.1,0.1c-0.1,0.1-0.2,0.2-0.2,0.3
			c0,0.1-0.2,0.3-0.2,0.3c0,0,0,0,0,0c0,0.1,0,0,0,0c0,0,0,0,0,0c0,0-0.1,0.1-0.1,0.1c0,0,0.1-0.1,0.1-0.1c0,0,0,0,0,0
			c-0.1,0.1-0.2,0.3-0.2,0.3c0,0-0.1,0.1-0.1,0.1c0,0,0.1-0.1,0.1-0.1c0,0,0.1-0.2,0.2-0.3c0.1-0.1-0.1,0.2-0.2,0.3
			c0,0-0.1,0.1-0.1,0.1c0,0.1-0.1,0.1-0.1,0.2c0,0-0.1,0.1-0.1,0.2c0,0.1-0.1,0.1-0.1,0.2c0,0.1,0,0,0.1-0.1c0-0.1,0.1-0.1,0.1-0.1
			c0,0.1,0.1-0.1,0,0c0,0-0.1,0.3,0,0.1c0,0,0.2-0.3,0.1-0.1c-0.1,0.1,0.1,0,0.1,0c-0.1,0.1-0.1,0.1-0.2,0.2
			c-0.1,0.1-0.1,0.1-0.1,0.2c-0.1,0.1-0.1,0.2-0.2,0.3c-0.1,0.1-0.2,0.3-0.2,0.3c0,0-0.1,0.1-0.1,0.2c0,0.1-0.1,0.2-0.2,0.3
			c0,0.1,0-0.1,0,0c0,0.1-0.1,0.1-0.2,0.2c-0.1,0.2-0.1,0.2-0.2,0.3c-0.1,0.1-0.2,0.3-0.1,0.2c0,0,0-0.1,0.1-0.1
			c0,0,0.1-0.2,0.1-0.2c0,0,0,0,0.1-0.1c0,0,0-0.1,0.1-0.1c0-0.1,0,0,0,0.1c0,0,0.2-0.2,0.1-0.1c0,0,0.1-0.1,0.1-0.2
			c0.1-0.1,0.1-0.1,0.1-0.2c0.1-0.2,0.2-0.2,0.2-0.3c0.1-0.1,0.1-0.2,0.2-0.3c0.1-0.1,0.1-0.2,0.2-0.2c0,0,0.1-0.1,0.1-0.1
			c0-0.1,0.1-0.1,0.1-0.2c0,0,0.1-0.1,0.1-0.1c0.1-0.2,0-0.1,0.2-0.3c0.1-0.1,0.1-0.1,0.2-0.2c0,0,0.1-0.1,0.1-0.1
			c0,0,0-0.1,0.1-0.1c0,0,0.2-0.2,0.3-0.3c0.1-0.1,0.1-0.1,0.2-0.2c0,0,0.1,0,0.1-0.1c0,0,0.1-0.1,0.1-0.1c0,0,0,0.1,0,0.1
			c-0.1,0.1-0.1,0.1-0.1,0.2c0,0,0,0,0,0c0,0,0,0-0.1,0c0,0-0.1,0.1-0.2,0.2c-0.1,0.2-0.1,0.2-0.2,0.3c-0.1,0.1,0,0.1,0,0.1
			c0,0.1-0.1,0-0.1,0.1c-0.1,0.1,0,0.1,0,0.1c0.1-0.1,0.2-0.2,0.3-0.3c0.1-0.1,0.1-0.1,0.2-0.2c0.1-0.1,0.1-0.2,0.2-0.3
			c0-0.1,0.1-0.1,0.1-0.1c0,0-0.1,0.2,0,0.1c0.1-0.1,0.1-0.1,0.1,0c0,0,0,0,0,0.1c0,0.1,0,0,0.1,0c0.1-0.1-0.1,0.1,0,0.2
			c0,0,0.1,0,0.1,0c0.1,0,0.1,0,0.2,0.1c0,0,0.1,0,0.1,0c0,0,0.1-0.1,0.1,0c0,0.1-0.1,0.1-0.1,0.1c0,0.1,0,0.1,0,0.1
			c0,0.1,0,0.3,0,0.4c0,0.1,0,0.1,0.2-0.1c0.1-0.2,0,0.1,0.1,0.1c0,0,0.1-0.2,0.2-0.3c0,0,0,0.1,0,0.1c0,0.1,0,0.1,0,0.2
			c0,0,0,0.1,0,0.2c0,0.1-0.1,0.2-0.1,0.3c0,0.1,0.1,0.1,0,0.3c0,0.1-0.1,0.2-0.1,0.2c0,0,0.1,0,0.1,0.1c0,0.1-0.1,0.2-0.1,0.3
			c0,0.1,0,0.2,0,0.3c0,0.1,0,0.2,0,0.2c0,0,0,0.1,0,0.1c0,0.1,0.1-0.1,0.1-0.1c0.1-0.1,0,0.1,0,0.1c-0.1,0.2,0,0.4,0.1,0.3
			c0,0.1,0,0.1-0.1,0.1c0,0,0,0.1,0,0.1c0,0.1,0,0.2,0.1,0.2c0.1,0.1,0.3,0.2,0.4,0.3c0.1,0.1,0.2,0.2,0.2,0.4c0,0.2,0,0.3-0.1,0.1
			c0-0.1-0.1-0.2-0.1-0.2c-0.1-0.1-0.2,0-0.2-0.2c0-0.3-0.2-0.2-0.3-0.3c-0.1,0-0.1-0.1-0.2,0c-0.1,0-0.1,0.1,0,0.2
			c0,0.1,0,0.2,0.1,0.2c0,0,0.2,0,0.2,0.1c0,0,0,0,0,0c0,0.2,0.2,0,0.1,0.2c0,0.1,0.2,0,0.2,0c-0.2,0.3,0.1,0.8,0,0.9
			c-0.1,0.1-0.1,0.3-0.1,0.4c0,0.3-0.1,0.5-0.1,0.8c0,0,0,0,0,0c0,0.2-0.1,0.3-0.1,0.4c-0.1,0.2,0,0.3,0,0.4c0,0.1,0.1,0.3,0,0.4
			c0,0.1-0.2,0.3-0.1,0.4c0.1,0.1,0.1,0.1,0.1,0.3c0,0.1,0,0.3,0.1,0.3c0.1,0,0.1,0.1,0.2,0.2c0,0.1,0.1-0.1,0.2,0
			c0,0.1,0,0.1,0,0.2c0,0.1-0.1,0-0.1,0c0,0.1,0.1,0.2,0.1,0.2c0.1,0.1,0.2,0,0.1,0.3c0,0.2,0.3,0.3,0.3,0.5c0,0.1,0,0.1,0.1,0.1
			c0.1,0,0.2,0.1,0.4,0.1c0.2,0.1,0.4,0.2,0.5,0.4c0.1,0.1,0.1,0.3,0.2,0.4c0.1,0.2,0.2,0.3,0.3,0.5c0.1,0.2,0.2,0.3,0.4,0.4
			c0,0,0.3,0.4,0.2,0.4c-0.1,0-0.2,0-0.2,0.1c-0.1,0.1,0.2,0.1,0.2,0.1c0.1,0,0.2,0.2,0.3,0.1c0.1,0,0.1,0,0.1,0.1
			c0.1,0.1,0.1,0.1,0.2,0.1c0.2,0.1,0,0.5,0.3,0.6c0.2,0.1,0.4,0.2,0.6,0.4c0.1,0.1,0.1,0.2,0.2,0.1c0.1-0.1,0.1-0.2,0-0.3
			c-0.1-0.1-0.1-0.2-0.2-0.2c-0.1,0-0.2,0-0.3-0.1c-0.1-0.2-0.1-0.3-0.2-0.4c-0.1-0.1-0.1-0.3-0.2-0.4c-0.1-0.1-0.2-0.2-0.3-0.3
			c-0.1-0.1-0.2-0.3-0.2-0.4c0,0-0.1-0.1-0.1-0.1c-0.1,0-0.1-0.1-0.1-0.2c-0.1-0.1-0.2-0.1-0.3-0.2c-0.1-0.1,0-0.2-0.1-0.4
			c0-0.1-0.1-0.3,0-0.3c0.2-0.1,0.3,0.1,0.4,0.1c0.1,0,0.1,0.2,0.1,0.3c0.1,0.2,0.2,0.3,0.3,0.5c0.1,0.2,0.3,0.6,0.5,0.4
			c0,0,0,0.1,0.1,0.2c0,0.1,0.1,0.1,0.1,0.1c0.1,0,0.3,0.1,0.3,0.2c0,0.1-0.1,0.2,0,0.3c0.1,0.1,0.2,0.1,0.3,0.1
			c0.1,0,0.1,0.1,0.2,0.2c0.1,0.1,0.2,0.1,0.3,0.2c0.1,0.1,0.2,0.2,0.3,0.3c0.1,0.1,0.2,0.2,0.3,0.3c0,0.1,0.1,0.2,0.2,0.3
			c0,0,0,0.1,0,0.2c0,0.1,0.1,0.1,0,0.2c-0.2,0.5,1,0.6,1.2,0.6c0.1,0,0.3,0.1,0.4,0.2c0.1,0.1,0.3,0.1,0.5,0.1
			c0.3,0.1,0.7,0.2,1,0.3c0.3,0.1,0.5,0,0.8-0.2c0.3-0.2,0.5-0.1,0.8,0.1c0.6,0.4,1.3,0.4,2,0.3c0.3,0,0.6,0.3,0.8,0.4
			c0.1,0.1,0.3,0.1,0.4,0.3c0.1,0.1,0,0.2,0.1,0.4c0.1,0.1,0.2,0.1,0.2,0c0.1-0.1,0.3,0,0.3,0c0.1,0,0.3,0.1,0.4,0.2
			c0,0,0,0.1,0.1,0.1c0.1,0.1,0.2,0,0.3,0c0.2,0,0.3,0,0.5,0.1c0.1,0.1,0.2,0.2,0.4,0.2c0.1,0,0.2,0,0.2-0.1c0-0.1-0.2-0.2-0.2-0.3
			c0-0.1,0.1-0.1,0.1-0.1c0,0,0.1-0.1,0.1-0.1c0.1-0.1,0.3-0.1,0.4,0c0,0,0.3,0.1,0.1,0.1c-0.2,0.1,0,0.2,0.1,0.3
			c0.3,0.2,0.4,0.5,0.4,0.8c0.1,0.3,0.3,0.5,0.1,0.8c-0.1,0.1-0.2,0.2-0.3,0.3c-0.1,0.1,0,0.3-0.1,0.4c-0.1,0.1-0.2,0.2-0.2,0.3
			c0,0.2-0.1,0.3-0.1,0.5c0,0.2,0,0.5,0.2,0.6c0.1,0,0.2-0.1,0.2,0.1c0,0.1,0,0.2-0.1,0.3c-0.1,0.1-0.1,0.2-0.1,0.4
			c0,0.1,0.1,0.2,0.1,0.3c0,0.1,0,0.2,0.1,0.1c0.2,0,0.3,0.1,0.4,0.2c0.2,0.2,0.4,0.4,0.6,0.6c0.3,0.3,0.4,0.6,0.7,0.8
			c0.1,0.1,0.5,0.3,0.4,0.5c-0.1,0.2,0.3,0.3,0.5,0.4c0.1,0.1,0.2,0.1,0.3,0.2c0.1,0.1,0.3,0.1,0.4,0.1c0.3,0,0.6,0.1,0.8,0.3
			c0.2,0.2,0.3,0.4,0.3,0.6c0,0.2,0.2,0.5,0.1,0.8c0,0.1-0.1,0.1,0,0.2c0,0,0,0.2,0,0.3c0,0.3,0.1,0.6,0.1,0.9c0,0.1,0,0.3-0.1,0.4
			c0,0.1,0.1,0.1,0.1,0.2c0,0.1,0,0.1,0,0.2c0,0.1,0,0.2,0.1,0.3c0,0.1,0.1,0.2,0.1,0.3c0,0.1,0,0.2,0,0.3c0,0.3-0.1,0.5-0.1,0.7
			c0,0.1-0.1,0.2-0.1,0.2c0,0.1,0,0.2,0.1,0.2c0,0.1,0.1,0.1,0.1,0.2c0.1,0.1,0,0.2,0,0.3c0,0.1,0,0.2,0,0.2c0,0.1,0.1,0.1,0,0.2
			c-0.1,0.1,0,0.2,0,0.3c0.1,0.1,0.1,0,0.1-0.1c0-0.1,0-0.1,0-0.2c0,0,0.1-0.1,0.1-0.1c0.1,0,0,0.2,0,0.2c0,0.1,0,0.2,0,0.3
			c0,0.1,0,0.2,0,0.3c0,0.1,0.1,0.2,0,0.3c0,0-0.1,0-0.2,0c0,0-0.1,0.1-0.1,0.1c0,0,0,0.1,0,0.1c0,0,0,0,0.1,0c0,0,0.1,0,0.1,0
			c0.1,0.1-0.1,0.2-0.1,0.3c0,0.1,0.1,0.2,0.1,0.3c0,0.1,0,0.2,0.1,0.2c0.1,0,0.1,0.1,0.1,0.2c0,0,0.1,0.1,0.1,0.1
			c0,0,0.1,0.1,0.1,0.1c0.1,0,0.2,0.1,0.3,0.1c0,0,0.2,0.1,0.2,0c0.1-0.1,0.2-0.1,0.3-0.2c0,0,0,0-0.1,0c0,0-0.1,0-0.1-0.1
			c0,0-0.1-0.1-0.1-0.1c0,0-0.1,0-0.1,0c0,0,0,0,0-0.1c0,0-0.1,0-0.1,0c0,0-0.1,0-0.1,0c0-0.1,0.1,0,0.1,0c0-0.1-0.2-0.3,0-0.4
			c0.1,0,0.1-0.1,0.1-0.2c0-0.1,0.1-0.2,0.2-0.2c0,0,0.1,0,0.1-0.1c0-0.1,0-0.1,0-0.1c0-0.1-0.1-0.1-0.2-0.1c-0.1-0.1-0.1-0.2,0-0.2
			c0.1-0.1,0.2-0.2,0.2-0.2c0-0.1,0.1-0.3,0.1-0.4c0,0,0.1-0.1,0.1-0.1c0,0,0,0-0.1,0c0,0,0-0.1,0.1-0.1c0.1,0,0.1,0.1,0.1,0
			c0.1,0,0.1-0.1,0.1-0.1c0-0.1-0.3,0.1-0.3-0.1c0-0.1,0-0.1,0-0.2c0-0.1,0.1-0.1,0.1-0.1c0.1,0,0.2,0.1,0.4-0.1
			c0.1-0.1,0.1-0.2,0.1-0.2c0-0.1,0-0.1,0-0.2c0.1-0.2,0.3-0.1,0.5-0.2c0.1,0,0.2-0.1,0.3-0.1c0.1-0.1,0.2-0.1,0.3-0.1
			c0.1-0.1,0.3-0.5,0.2-0.5c-0.1-0.1,0.1-0.2,0-0.3c0,0-0.4-0.1-0.2-0.2c0.1-0.1,0.3,0,0.4,0c0.1,0,0.2,0,0.3,0
			c0.1,0,0.2-0.1,0.3-0.1c0.2-0.1,0.3-0.4,0.4-0.6c0.1-0.1,0.1-0.2,0.2-0.4c0-0.1,0.1-0.2,0.2-0.3c0-0.1,0.1-0.3,0.2-0.2
			c0,0.1-0.1,0.2-0.2,0.3c0,0-0.1,0.2,0,0.1c0.1-0.1,0.2-0.3,0.3-0.4c0.1-0.2,0.3-0.4,0.4-0.7c0.1-0.2,0.1-0.5,0.1-0.7
			c0-0.1,0-0.2,0.1-0.3c0.1-0.1,0.2-0.2,0.3-0.3c0.1-0.1,0.2-0.2,0.3-0.3c0.1-0.1,0.2-0.1,0.3-0.2c0.2-0.2,0.4-0.3,0.6-0.3
			c0.1,0,0.2,0,0.3-0.1c0.1-0.1,0.2-0.2,0.2-0.3c0.1-0.1,0.1-0.2,0.1-0.3c0.1-0.1,0.2-0.2,0.2-0.4c0.1-0.3,0.2-0.6,0.3-0.9
			c0.1-0.3,0.1-0.6,0.2-0.9c0-0.2,0-0.3,0.1-0.5c0-0.1,0-0.2,0.1-0.2c0,0,0.1,0,0.1-0.1c0.1-0.1,0.2-0.4,0.3-0.6
			c0.1-0.3,0.3-0.5,0.5-0.7c0.2-0.3,0.3-0.6,0.3-0.9C11.2,141.5,11.2,141.2,11,141.1z"/>
		<path fill="#FFFFFF" d="M-23.1,122.6C-23.1,122.6-23.1,122.6-23.1,122.6C-23.1,122.6-23.1,122.6-23.1,122.6z"/>
	</g>
</g>
</svg>
